<svg width="300" height="300" viewBox="0 0 300 300" fill="none" xmlns="http://www.w3.org/2000/svg">
<path d="M150.28 275C219.316 275 275.28 219.036 275.28 150C275.28 80.9644 219.316 25 150.28 25C81.2447 25 25.2803 80.9644 25.2803 150C25.2803 219.036 81.2447 275 150.28 275Z" fill="#506C87"/>
<mask id="mask0_732_26596" style="mask-type:alpha" maskUnits="userSpaceOnUse" x="25" y="25" width="251" height="250">
<path d="M150.28 275C219.316 275 275.28 219.036 275.28 150C275.28 80.9644 219.316 25 150.28 25C81.2447 25 25.2803 80.9644 25.2803 150C25.2803 219.036 81.2447 275 150.28 275Z" fill="#D4ECFA"/>
</mask>
<g mask="url(#mask0_732_26596)">
<rect x="-14.6523" width="178.541" height="319.885" fill="#FFC79D"/>
<rect x="163.276" y="-22.8899" width="178.541" height="319.885" fill="#FFA248"/>
<rect x="174.188" y="-22.8899" width="178.541" height="319.885" fill="#FFC79D"/>
<rect width="140.121" height="178.616" transform="matrix(0.984808 -0.173648 0 1 -37.6553 15.9176)" fill="#FFB26F"/>
<rect width="140.121" height="178.616" transform="matrix(0.984808 -0.173648 0 1 -50.2949 7.29712)" fill="#D0F3FF"/>
<rect width="140.121" height="178.616" transform="matrix(0.984808 -0.173648 0 1 -36.3301 238.635)" fill="#FFB26F"/>
<g style="mix-blend-mode:color-burn" opacity="0.4">
<path d="M252.102 37.355L174.28 53.0701L163.439 48.4428L100.146 62.2831C96.5862 63.0062 93.7051 66.4658 93.7051 70.0255V125.913C93.7051 129.472 96.5862 131.764 100.146 131.052L252.102 106.124C255.662 105.401 258.543 101.941 258.543 98.3813V42.4943C258.543 38.9346 255.662 36.643 252.102 37.355Z" fill="#8E8E8E"/>
</g>
<path fill-rule="evenodd" clip-rule="evenodd" d="M102.392 75.1137L244.594 44.4063C248.154 43.6944 251.035 45.986 251.035 49.5456V55.6663C250.755 55.6515 250.464 55.669 250.164 55.7218L237.603 57.9366C235.428 58.3203 233.664 60.4221 233.664 62.6312V99.2819C233.664 101.491 235.428 102.971 237.603 102.587L250.164 100.372C250.464 100.32 250.755 100.234 251.035 100.121V105.433C251.035 108.992 248.154 112.452 244.594 113.175L102.392 143.882C98.8323 144.594 95.9512 142.303 95.9512 138.743V82.856C95.9512 79.2963 98.8323 75.8367 102.392 75.1137Z" fill="#FEE283"/>
<path d="M135.343 81.1456C132.584 81.8576 130.359 85.2838 130.359 88.7878V118.233C130.359 121.748 132.595 124.018 135.343 123.306C138.102 122.594 140.326 119.168 140.326 115.663V86.2182C140.326 82.703 138.091 80.4337 135.343 81.1456Z" fill="#FFC509"/>
<path d="M135.399 86.4519L150.372 95.9518C167.348 105.93 166.291 118.511 166.291 118.511C166.291 129.368 158.504 136.11 149.694 130.459L136.1 120.213" stroke="#FEE283" stroke-width="11.124" stroke-miterlimit="10" stroke-linecap="round"/>
<g style="mix-blend-mode:color-burn" opacity="0.4">
<circle cx="40.6754" cy="40.6754" r="40.6754" transform="matrix(0.984808 -0.173648 0 1 101.478 154.914)" fill="#8E8E8E"/>
</g>
<path d="M173.749 156.074C183.587 161.751 189.962 172.508 189.962 185.902C189.962 208.366 172.027 229.74 149.904 233.64C140.971 235.216 132.721 233.701 126.059 229.856C116.222 224.179 109.847 213.422 109.847 200.028C109.847 177.564 127.781 156.19 149.904 152.29C158.837 150.714 167.087 152.229 173.749 156.074Z" fill="#675EC9"/>
<path fill-rule="evenodd" clip-rule="evenodd" d="M188.046 164.328C188.097 164.357 188.149 164.387 188.2 164.417L173.75 156.074C167.088 152.229 158.838 150.714 149.905 152.29L164.355 160.633C170.052 159.628 175.472 159.88 180.379 161.192C186.354 167.243 189.961 175.827 189.961 185.902L189.962 185.902C189.962 208.367 172.028 229.74 149.905 233.641L149.905 233.641C144.206 234.645 138.786 234.393 133.879 233.081C127.904 227.029 124.297 218.446 124.297 208.371L109.847 200.028L124.297 208.371C124.297 185.907 142.232 164.533 164.355 160.632L149.904 152.289C127.781 156.19 109.847 177.564 109.847 200.028C109.847 213.422 116.222 224.179 126.059 229.856L126.059 229.857L140.481 238.183L140.499 238.193L140.51 238.2C147.172 242.044 155.422 243.559 164.355 241.984L164.355 241.984C186.478 238.083 204.413 216.709 204.413 194.245L204.412 194.244C204.411 180.851 198.036 170.094 188.199 164.417L188.046 164.328Z" fill="#675EC9"/>
<circle cx="40.6754" cy="40.6754" r="40.6754" transform="matrix(0.984808 -0.173648 0 1 124.297 167.696)" fill="#7E9AFF"/>
<path d="M178.094 182.024C183.012 184.862 186.2 190.241 186.2 196.938C186.2 208.17 177.233 218.856 166.171 220.807C161.705 221.594 157.58 220.837 154.249 218.915C149.33 216.076 146.143 210.698 146.143 204.001C146.143 192.769 155.11 182.082 166.171 180.132C170.638 179.344 174.763 180.101 178.094 182.024Z" fill="#675EC9"/>
<path fill-rule="evenodd" clip-rule="evenodd" d="M185.319 186.195L178.126 182.042L178.099 182.027L178.094 182.024C174.763 180.101 170.638 179.344 166.171 180.132L166.171 180.132C155.11 182.082 146.143 192.769 146.143 204.001L153.368 208.172C153.368 196.94 162.335 186.254 173.396 184.303L173.396 184.303C176.245 183.801 178.955 183.927 181.409 184.583C184.396 187.609 186.2 191.9 186.2 196.938L193.425 201.109L186.2 196.938C186.2 208.17 177.232 218.857 166.171 220.807L166.171 220.807C163.322 221.31 160.612 221.183 158.159 220.527C155.171 217.501 153.368 213.21 153.368 208.172L146.143 204.001C146.143 210.698 149.33 216.076 154.249 218.915L161.469 223.083L161.414 223.052L161.475 223.087C164.806 225.009 168.931 225.766 173.397 224.979L173.397 224.978C184.458 223.028 193.425 212.341 193.425 201.109L193.425 201.109C193.425 194.412 190.237 189.034 185.319 186.195L185.319 186.195Z" fill="#675EC9"/>
<circle cx="20.3377" cy="20.3377" r="20.3377" transform="matrix(0.984808 -0.173648 0 1 153.368 187.835)" fill="#FEEDB4"/>
<path fill-rule="evenodd" clip-rule="evenodd" d="M142.316 120.778C145.83 117.95 149.555 116.302 153.358 114.917C157.162 113.533 161.853 113.72 165.366 113.99C168.88 114.26 172.073 115.368 174.762 117.251C177.452 119.134 179.585 121.756 181.041 124.965C182.496 128.175 183.245 131.91 183.245 135.957V161.093L183.233 161.086C183.232 161.118 183.231 161.148 183.23 161.178C179.706 160.614 178.17 159.819 175.958 158.537C173.534 156.955 172.489 155.765 172.792 154.59L172.792 139.762C172.792 137.175 172.313 134.788 171.383 132.737C170.453 130.686 169.09 129.011 167.371 127.807C165.652 126.604 163.612 125.896 161.366 125.723C159.121 125.551 156.714 125.917 154.283 126.802C151.852 127.687 149.445 129.072 147.2 130.879C144.954 132.686 142.914 134.88 141.195 137.335C139.476 139.789 138.113 142.457 137.183 145.185C136.253 147.913 135.774 150.649 135.774 153.236L135.774 169.951H135.766C135.767 169.974 135.768 169.998 135.768 170.021C135.768 171.436 133.428 172.583 130.543 172.583C127.657 172.583 125.317 171.436 125.317 170.021C125.317 169.991 125.318 169.96 125.321 169.93L125.321 157.04C125.321 156.733 125.32 156.417 125.319 156.094C125.309 152.156 125.297 147.109 126.642 143.164C128.098 138.894 130.231 134.72 132.92 130.879C135.61 127.038 138.803 123.606 142.316 120.778Z" fill="white"/>
<mask id="mask1_732_26596" style="mask-type:alpha" maskUnits="userSpaceOnUse" x="129" y="80" width="43" height="59">
<path fill-rule="evenodd" clip-rule="evenodd" d="M130.702 83.4719C132.348 80.8781 135.785 80.1095 138.378 81.7552L153.274 91.2058C162.701 96.769 167.487 103.292 169.819 108.807C170.972 111.532 171.488 113.922 171.709 115.703C171.82 116.592 171.857 117.331 171.864 117.886C171.867 118.163 171.863 118.396 171.856 118.579C171.854 118.613 171.853 118.647 171.852 118.678C171.812 125.234 169.439 131.442 164.679 135.09C159.503 139.056 152.768 139.038 146.69 135.14L146.513 135.026L132.752 124.655C130.299 122.806 129.809 119.318 131.658 116.865C133.507 114.412 136.994 113.922 139.447 115.771L152.857 125.878C155.49 127.507 157.01 126.952 157.912 126.261C159.208 125.267 160.728 122.75 160.728 118.511V118.278L160.74 118.13C160.741 118.107 160.741 118.068 160.741 118.016C160.739 117.844 160.726 117.522 160.67 117.076C160.56 116.186 160.279 114.807 159.574 113.14C158.198 109.885 155.046 105.151 147.553 100.747L147.472 100.699L132.419 91.1481C129.825 89.5024 129.056 86.0656 130.702 83.4719Z" fill="#F9E8BD"/>
</mask>
<g mask="url(#mask1_732_26596)">
<path fill-rule="evenodd" clip-rule="evenodd" d="M130.702 83.4719C132.348 80.8781 135.785 80.1095 138.378 81.7552L153.274 91.2058C162.701 96.769 167.487 103.292 169.819 108.807C170.972 111.532 171.488 113.922 171.709 115.703C171.82 116.592 171.857 117.331 171.864 117.886C171.867 118.163 171.863 118.396 171.856 118.579C171.854 118.613 171.853 118.647 171.852 118.678C171.812 125.234 169.439 131.442 164.679 135.09C159.503 139.056 152.768 139.038 146.69 135.14L146.513 135.026L132.752 124.655C130.299 122.806 129.809 119.318 131.658 116.865C133.507 114.412 136.994 113.922 139.447 115.771L152.857 125.878C155.49 127.507 157.01 126.952 157.912 126.261C159.208 125.267 160.728 122.75 160.728 118.511V118.278L160.74 118.13C160.741 118.107 160.741 118.068 160.741 118.016C160.739 117.844 160.726 117.522 160.67 117.076C160.56 116.186 160.279 114.807 159.574 113.14C158.198 109.885 155.046 105.151 147.553 100.747L147.472 100.699L132.419 91.1481C129.825 89.5024 129.056 86.0656 130.702 83.4719Z" fill="#FFCD29"/>
<path fill-rule="evenodd" clip-rule="evenodd" d="M157.127 114.034C155.826 114.205 154.549 114.484 153.359 114.917C149.556 116.302 145.831 117.951 142.317 120.778C138.804 123.606 135.611 127.039 132.921 130.88C130.232 134.72 128.099 138.895 126.643 143.164C125.298 147.109 125.31 152.156 125.32 156.094L125.32 156.094C125.321 156.417 125.322 156.733 125.322 157.04V185.78C125.319 185.811 125.318 185.841 125.318 185.871C125.318 187.286 127.658 188.433 130.544 188.433C133.429 188.433 135.769 187.286 135.769 185.871L135.769 185.87H135.775V153.236C135.775 150.649 136.254 147.914 137.184 145.185C138.114 142.457 139.477 139.789 141.196 137.335C142.915 134.88 144.955 132.687 147.201 130.879C149.446 129.072 151.853 127.687 154.284 126.802C155.238 126.455 156.188 126.187 157.127 126.001V114.034Z" fill="white"/>
</g>
<rect x="243.382" y="100.368" width="15.5566" height="12.7373" fill="#FFA400"/>
<ellipse cx="251.16" cy="113.182" rx="7.77832" ry="2.85706" fill="#FFA400"/>
<path fill-rule="evenodd" clip-rule="evenodd" d="M258.938 42.5443H243.382V100.368H243.395C243.386 100.423 243.382 100.478 243.382 100.533C243.382 102.111 246.864 103.39 251.16 103.39C255.456 103.39 258.938 102.111 258.938 100.533C258.938 100.478 258.934 100.423 258.926 100.368H258.938V42.5443Z" fill="#FED850"/>
</g>
<path fill-rule="evenodd" clip-rule="evenodd" d="M177.681 205.886C179.504 204.177 180.742 201.677 180.742 199.319C180.742 195.9 178.138 194.076 174.925 195.245C171.712 196.415 169.107 200.134 169.107 203.554C169.107 205.911 170.346 207.51 172.168 207.892L168.257 216.526L181.592 211.672L177.681 205.886Z" fill="#675EC9"/>
</svg>
