<svg width="340" height="100" viewBox="0 0 340 100" fill="none" xmlns="http://www.w3.org/2000/svg">
<g clip-path="url(#clip0_8389_36607)">
<rect y="100" width="100" height="340" rx="8" transform="rotate(-90 0 100)" fill="#D3EDFF"/>
<path opacity="0.5" d="M334.273 58.7334V77.6125H328.673V68.4104L313.055 65.0282V53.8256H303.825V75.9641H302.214V70.0641H288.207V79.7356H282.298V66.9914L261.136 53.3082H254.91V74.7798H249.5V48.7525H238.996V65.8017L234.058 63.924V54.9566L213.515 61.8595V77.9699H206.353L199.198 70.7682L198.903 70.0747V47.0134L191.361 45.141V37.6139L175.631 33.7143V19.0016L164.508 16.2436L164.121 16.0195L163.734 16.2436L152.612 19.0016V38.4727L136.881 42.3723V45.141L129.339 47.0134V70.5335H115.783V77.2604H102.634V59.5603H96.3023L88.0219 67.3488H76.822L74.1486 75.6654L68.5416 73.7183V81.8641H66.9657V63.6199H58.3266V81.8641H54.9075V64.8682H44.2V73.7183H35.188V63.9827L29.1026 59.5603V50.7102H14.0051V88.2336H8.15891V65.5777H-11.7576V100.386V101.687V196.557H340V109.711V100.386V54.3911L334.273 58.7334Z" fill="#AADBFF"/>
<path opacity="0.5" fill-rule="evenodd" clip-rule="evenodd" d="M194.473 20.3457C194.954 20.1832 195.468 20.0952 196.003 20.0952C198.275 20.0952 200.177 21.6832 200.658 23.8099C201.063 23.6979 201.491 23.638 201.932 23.638C204.567 23.638 206.704 25.7747 206.704 28.4105C206.704 31.0462 204.567 33.1829 201.932 33.1829C201.859 33.1829 201.786 33.1813 201.714 33.1781V33.183H181.107V33.1829C178.484 33.1679 176.362 31.037 176.362 28.4105C176.362 25.7747 178.499 23.638 181.134 23.638C181.159 23.638 181.183 23.6382 181.207 23.6386C181.793 20.1099 184.86 17.4194 188.554 17.4194C190.967 17.4194 193.112 18.5668 194.473 20.3457Z" fill="#AADBFF"/>
<path opacity="0.5" fill-rule="evenodd" clip-rule="evenodd" d="M49.9634 36.1093C50.4437 35.9469 50.9582 35.8588 51.4933 35.8588C53.7656 35.8588 55.6669 37.4468 56.1482 39.5736C56.5536 39.4615 56.9807 39.4017 57.4218 39.4017C60.0576 39.4017 62.1943 41.5384 62.1943 44.1742C62.1943 46.8099 60.0576 48.9466 57.4218 48.9466C57.349 48.9466 57.2765 48.945 57.2045 48.9418V48.9466H36.5967V48.9465C33.9737 48.9316 31.8521 46.8006 31.8521 44.1742C31.8521 41.5384 33.9888 39.4017 36.6245 39.4017C36.6489 39.4017 36.6733 39.4019 36.6976 39.4023C37.2834 35.8736 40.3498 33.1831 44.0446 33.1831C46.4575 33.1831 48.6023 34.3305 49.9634 36.1093Z" fill="#AADBFF"/>
<path opacity="0.5" fill-rule="evenodd" clip-rule="evenodd" d="M318.626 17.1609C319.389 12.5682 323.38 9.06641 328.189 9.06641C331.329 9.06641 334.121 10.5598 335.893 12.8751C336.518 12.6637 337.187 12.549 337.884 12.549C340.841 12.549 343.316 14.6158 343.942 17.3838C344.47 17.2381 345.026 17.1602 345.6 17.1602C349.03 17.1602 351.811 19.9413 351.811 23.3718C351.811 26.8024 349.03 29.5835 345.6 29.5835C345.505 29.5835 345.411 29.5814 345.317 29.5772V29.5836H318.495V29.5834C315.081 29.5638 312.32 26.7903 312.32 23.3718C312.32 19.9413 315.101 17.1602 318.531 17.1602C318.563 17.1602 318.595 17.1605 318.626 17.1609Z" fill="#AADBFF"/>
<path fill-rule="evenodd" clip-rule="evenodd" d="M207.306 68.1259C207.306 69.2033 207.075 70.2281 206.657 71.1555C209.275 72.0431 211.044 73.7378 211.044 75.6826C211.044 78.5467 207.207 80.8685 202.475 80.8685C200.466 80.8685 198.619 80.4501 197.158 79.7496C196.073 80.4387 194.542 80.8681 192.845 80.8681C191.534 80.8681 190.322 80.6117 189.338 80.1773C188.354 80.6117 187.142 80.8681 185.831 80.8681C182.542 80.8681 179.876 79.2545 179.876 77.2639C179.876 76.0263 180.907 74.9344 182.477 74.2854C181.956 73.6157 181.664 72.8676 181.664 72.0783C181.664 70.0027 183.679 68.2119 186.59 67.3832C186.58 67.2675 186.575 67.1504 186.575 67.0321C186.575 64.7722 188.456 62.9402 190.776 62.9402C191.698 62.9402 192.55 63.229 193.243 63.7188C194.651 61.8114 196.95 60.5693 199.547 60.5693C203.832 60.5693 207.306 63.9525 207.306 68.1259Z" fill="#38BA58"/>
<path d="M211.046 75.8113C210.268 78.1903 206.637 80.8686 202.477 80.8686C200.469 80.8686 197.768 79.5501 197.162 76.3463C196.492 79.0713 196.048 80.4742 193.65 80.4742C192.339 80.4742 190.62 80.8686 189.927 75.582C189.927 80.1279 187.147 80.8686 185.836 80.8686C183.158 80.8686 180.627 78.5175 179.877 77.0455C179.706 77.403 179.88 79.0641 179.88 79.4578C180.387 82.413 182.547 83.2938 185.836 83.2938C187.147 83.2938 188.359 83.0208 189.343 82.5585C189.927 83.8563 190.635 84.5199 192.871 84.5199C195.747 84.5199 196.077 82.8369 197.162 82.1039C198.622 82.849 200.301 84.3909 202.309 84.3909C207.041 84.3909 210.307 81.9955 211.046 77.7743C211.046 77.4053 211.153 76.16 211.046 75.8113Z" fill="#239842"/>
<path d="M194.408 114.58L195.356 73.5498H195.914L196.672 114.58H194.408Z" fill="#8B532F"/>
<path d="M195.671 86.4093C197.532 85.7897 201.626 82.4323 203.439 76.7639C203.627 76.7641 203.713 76.7642 203.743 76.7642C203.833 76.7641 203.438 76.7632 203.744 76.7632C203.743 76.7635 203.743 76.7638 203.743 76.7642C203.071 80.2234 200.257 86.5586 195.671 87.6322V86.4093Z" fill="#8B532F"/>
<path d="M194.994 89.3323C193.133 88.7127 189.312 86.1816 187.499 80.5132C187.403 80.5478 187.292 80.5988 187.144 80.6357C187.141 80.6357 187.15 80.6357 187.144 80.6357C187.816 84.095 190.408 89.4817 194.994 90.5553V89.3323Z" fill="#8B532F"/>
<path d="M193.092 77.1968L195.577 82.6469V80.8888L193.448 77.1968H193.092Z" fill="#8B532F"/>
<path d="M203.729 77.1976C202.427 77.1976 202.172 76.4439 201.739 75.999C203.627 77.196 205.242 76.2355 205.778 75.999C205.135 76.9234 205.032 77.1976 203.729 77.1976Z" fill="#239842"/>
<path d="M193.059 77.7972C191.756 77.7972 191.502 77.0435 191.068 76.5986C192.957 77.7956 194.572 76.8351 195.108 76.5986C194.464 77.523 194.362 77.7972 193.059 77.7972Z" fill="#239842"/>
<path d="M195.642 74.1478C194.34 74.1478 194.085 73.3941 193.652 72.9492C195.54 74.1462 197.155 73.1857 197.691 72.9492C197.048 73.8735 196.945 74.1478 195.642 74.1478Z" fill="#239842"/>
<path fill-rule="evenodd" clip-rule="evenodd" d="M256.064 -2.04883L256.639 28.1246L254.688 27.456L255.175 -2.04883L256.064 -2.04883Z" fill="#3F568E"/>
<path fill-rule="evenodd" clip-rule="evenodd" d="M232.402 1.91602L232.977 32.0894L231.026 31.4209L231.514 1.91602L232.402 1.91602Z" fill="#3F568E"/>
<path fill-rule="evenodd" clip-rule="evenodd" d="M274.154 26.8804L274.73 57.0538L272.778 56.3852L273.266 26.8804L274.154 26.8804Z" fill="#3F568E"/>
<path d="M232.106 20.4758L250.28 8.30935V39.8206L232.106 47.9567V20.4758Z" fill="#C8C6EC"/>
<path d="M221.727 22.681C218.383 27.1395 211.943 27.9569 209.47 26.1017C206.997 24.2465 209.427 20.4212 212.772 15.9627C216.117 11.5043 218.863 7.92532 221.336 9.78052C223.809 11.6357 225.072 18.2226 221.727 22.681Z" fill="#E4E4E4"/>
<ellipse cx="215.32" cy="17.8728" rx="5.59757" ry="10.0919" transform="rotate(36.8775 215.32 17.8728)" fill="#EFEFEF"/>
<path fill-rule="evenodd" clip-rule="evenodd" d="M220.188 20.6716L215.462 17.664L215.204 18.0081L219.672 21.3598L220.188 20.6716ZM219.121 22.0948L214.928 18.3766L215.203 18.0102L219.671 21.362L219.121 22.0948Z" fill="#8E8E8E"/>
<ellipse cx="215.345" cy="18.0795" rx="0.885821" ry="0.888258" transform="rotate(36.8775 215.345 18.0795)" fill="#8E8E8E"/>
<path d="M268.456 20.4758L250.282 8.30935V39.8206L268.456 47.9567V20.4758Z" fill="#A4A1E0"/>
<mask id="mask0_8389_36607" style="mask-type:alpha" maskUnits="userSpaceOnUse" x="197" y="13" width="44" height="101">
<path d="M240.062 113.286H197.037V43.295L240.062 13.1191V113.286Z" fill="white"/>
</mask>
<g mask="url(#mask0_8389_36607)">
<path d="M240.062 113.286H197.037V43.295L240.062 13.1191V113.286Z" fill="#0072B4"/>
<path d="M237.669 106.931L190.847 62.3466V54.4189L237.669 95.9042V106.931Z" fill="#0083C7"/>
<path d="M237.667 87.7258L190.846 43.1413L189.469 39.182L237.667 58.9775V87.7258Z" fill="#0083C7"/>
</g>
<path d="M240.055 22.8901L197.03 50.4611V43.2913L240.062 13.1191L240.055 22.8901Z" fill="#CBD3FF"/>
<path d="M240.061 27.1901L197.036 53.1192L197.032 50.1229L240.061 22.8994V27.1901Z" fill="#EAEEFF"/>
<path d="M240.061 41.9576L197.036 63.4374L197.032 60.4411L240.061 37.667V41.9576Z" fill="#EAEEFF"/>
<path d="M197.556 60.1898L197.038 60.4419V53.1198L197.556 52.8306V60.1898Z" fill="#EAEEFF"/>
<path d="M201.365 58.2227L200.838 58.5013L200.831 50.733L201.356 50.4155L201.365 58.2227Z" fill="#EAEEFF"/>
<path d="M205.51 55.9676L204.985 56.2655L204.978 48.2955L205.503 47.958L205.51 55.9676Z" fill="#EAEEFF"/>
<path d="M209.999 53.5437L209.481 53.8629V45.6273L209.999 45.2622V53.5437Z" fill="#EAEEFF"/>
<path d="M215.187 51.0921L214.489 51.4607L214.483 42.368L215.182 41.9482L215.187 51.0921Z" fill="#EAEEFF"/>
<path d="M220.541 47.962L219.845 48.3376L219.839 39.4505L220.536 39.0225L220.541 47.962Z" fill="#EAEEFF"/>
<path d="M226.415 44.8943L225.546 45.314L225.542 35.8897L226.411 35.4136L226.415 44.8943Z" fill="#EAEEFF"/>
<path d="M232.981 41.4818L232.114 41.9479L232.112 31.9633L232.979 31.4326L232.981 41.4818Z" fill="#EAEEFF"/>
<path d="M240.062 37.6736L239.025 38.185V27.7714L240.062 27.1895V37.6736Z" fill="#EAEEFF"/>
<path d="M240.061 56.7212L197.036 73.7551L197.032 70.7606L240.061 52.4341V56.7212Z" fill="#EAEEFF"/>
<path d="M197.556 70.55L197.038 70.7528V63.4342L197.556 63.1943V70.55Z" fill="#EAEEFF"/>
<path d="M201.365 68.9877L200.838 69.2116L200.831 61.4469L201.356 61.1841L201.365 68.9877Z" fill="#EAEEFF"/>
<path d="M205.51 67.1749L204.985 67.4132L204.978 59.4852L205.503 59.2056L205.51 67.1749Z" fill="#EAEEFF"/>
<path d="M209.999 65.2044L209.481 65.4619V57.2298L209.999 56.9282V65.2044Z" fill="#EAEEFF"/>
<path d="M215.014 63.1111L214.316 63.3915L214.31 54.8049L215.007 54.4751L215.014 63.1111Z" fill="#EAEEFF"/>
<path d="M220.543 60.8175L219.847 61.1288L219.841 52.014L220.538 51.6489L220.543 60.8175Z" fill="#EAEEFF"/>
<path d="M226.415 58.2479L225.546 58.5847L225.542 49.1675L226.411 48.7725L226.415 58.2479Z" fill="#EAEEFF"/>
<path d="M232.981 55.4483L232.114 55.8246L232.112 45.8487L232.979 45.4097L232.981 55.4483Z" fill="#EAEEFF"/>
<path d="M240.062 52.4405L239.025 52.8531V42.4466L240.062 41.9634V52.4405Z" fill="#EAEEFF"/>
<path d="M240.061 71.469L197.036 84.0623L197.032 81.0678L240.061 67.1836V71.469Z" fill="#EAEEFF"/>
<path d="M197.556 80.9112L197.038 81.0646V73.7495L197.556 73.5591V80.9112Z" fill="#EAEEFF"/>
<path d="M201.365 79.742L200.838 79.913L200.831 72.15L201.356 71.9419L201.365 79.742Z" fill="#EAEEFF"/>
<path d="M205.681 78.2765L205.156 78.4566L205.151 70.5441L205.676 70.3228L205.681 78.2765Z" fill="#EAEEFF"/>
<path d="M210.168 76.6204L209.65 76.8179V68.5805L210.168 68.3389V76.6204Z" fill="#EAEEFF"/>
<path d="M215.187 75.2667L214.489 75.4924L214.483 66.4068L215.182 66.1299L215.187 75.2667Z" fill="#EAEEFF"/>
<path d="M220.543 73.7155L219.847 73.9592L219.841 64.5192L220.538 64.2197L220.543 73.7155Z" fill="#EAEEFF"/>
<path d="M226.415 71.6386L225.546 71.8938L225.542 62.438L226.411 62.1226L226.415 71.6386Z" fill="#EAEEFF"/>
<path d="M232.981 69.4608L232.114 69.7458L232.112 59.7692L232.979 59.4214L232.981 69.4608Z" fill="#EAEEFF"/>
<path d="M240.062 67.1929L239.025 67.505V57.1073L240.062 56.7246V67.1929Z" fill="#EAEEFF"/>
<path d="M240.061 85.976L197.036 94.2011L197.032 91.2066L240.061 81.6924V85.976Z" fill="#EAEEFF"/>
<path d="M197.556 91.0946L197.038 91.2004V83.8888L197.556 83.7495V91.0946Z" fill="#EAEEFF"/>
<path d="M201.365 90.3239L200.838 90.4403L200.831 82.6825L201.356 82.5273L201.365 90.3239Z" fill="#EAEEFF"/>
<path d="M205.689 89.404L205.163 89.5261L205.156 81.7103L205.682 81.5474L205.689 89.404Z" fill="#EAEEFF"/>
<path d="M209.999 88.3242L209.481 88.4583V80.2367L209.999 80.0586V88.3242Z" fill="#EAEEFF"/>
<path d="M215.187 87.4414L214.489 87.5966L214.483 78.5144L215.182 78.3081L215.187 87.4414Z" fill="#EAEEFF"/>
<path d="M220.541 86.0829L219.845 86.2443L219.839 77.1248L220.536 76.9077L220.541 86.0829Z" fill="#EAEEFF"/>
<path d="M226.415 84.7116L225.546 84.8862L225.542 75.4813L226.411 75.2485L226.415 84.7116Z" fill="#EAEEFF"/>
<path d="M232.981 83.3751L232.114 83.568L232.112 73.6321L232.979 73.373L232.981 83.3751Z" fill="#EAEEFF"/>
<path d="M240.062 81.6946L239.025 81.908V71.5173L240.062 71.2334V81.6946Z" fill="#EAEEFF"/>
<path d="M240.061 100.707L197.036 104.497L197.032 101.504L240.061 96.4272V100.707Z" fill="#EAEEFF"/>
<path d="M197.556 101.442L197.038 101.499V94.1908L197.556 94.0991V101.442Z" fill="#EAEEFF"/>
<path d="M201.365 101.072L200.838 101.134L200.831 93.3764L201.356 93.2759L201.365 101.072Z" fill="#EAEEFF"/>
<path d="M205.689 99.7668L205.163 99.8285L205.156 92.3847L205.682 92.2842L205.689 99.7668Z" fill="#EAEEFF"/>
<path d="M209.999 99.9638L209.481 100.034V91.8181L209.999 91.7017V99.9638Z" fill="#EAEEFF"/>
<path d="M215.187 99.6088L214.489 99.6917L214.483 90.613L215.182 90.479L215.187 99.6088Z" fill="#EAEEFF"/>
<path d="M220.543 98.8677L219.847 98.9562L219.841 89.7056L220.538 89.5645L220.543 98.8677Z" fill="#EAEEFF"/>
<path d="M226.415 98.0393L225.546 98.131L225.542 88.7332L226.411 88.5815L226.415 98.0393Z" fill="#EAEEFF"/>
<path d="M232.977 97.24L232.11 97.3446L232.108 87.3155L232.975 87.146L232.977 97.24Z" fill="#EAEEFF"/>
<path d="M240.062 96.4307L239.025 96.5454V86.1617L240.062 85.9766V96.4307Z" fill="#EAEEFF"/>
<path d="M240.065 13.1229V9.30664L195.447 41.6532L197.025 43.2873L240.065 13.1229Z" fill="#EAEEFF"/>
<path d="M200.845 50.8062L196.875 53.0801L196.935 111.879L200.845 111.821V50.8062Z" fill="#EAEEFF"/>
<path d="M240.065 27.104L232.953 31.4229L232.967 111.173L240.065 111.065V27.104Z" fill="#EAEEFF"/>
<path d="M240.063 113.204H283.259V43.305L240.063 13.0391V113.204Z" fill="#0072B4"/>
<path d="M240.063 22.8542L283.259 50.508L283.266 43.2913L240.063 13.1191L240.063 22.8542Z" fill="#A4A1E0"/>
<path d="M240.063 27.1896L283.259 53.1187L283.262 50.1224L240.063 22.8989V27.1896Z" fill="#CBD3FF"/>
<path d="M240.063 41.9601L283.259 63.4398L283.262 60.4436L240.063 37.6694V41.9601Z" fill="#CBD3FF"/>
<path d="M282.738 60.1883L283.258 60.4405V53.1183L282.738 52.8291V60.1883Z" fill="#CBD3FF"/>
<path d="M278.913 58.2275L279.442 58.5062L279.449 50.7378L278.921 50.4204L278.913 58.2275Z" fill="#CBD3FF"/>
<path d="M274.75 55.7146L275.277 55.9932L275.284 48.5388L274.757 48.2231L274.75 55.7146Z" fill="#CBD3FF"/>
<path d="M270.247 53.5457L270.767 53.8649V45.6292L270.247 45.2642V53.5457Z" fill="#CBD3FF"/>
<path d="M265.04 51.0921L265.74 51.4607L265.745 42.368L265.045 41.9482L265.04 51.0921Z" fill="#CBD3FF"/>
<path d="M259.663 47.8473L260.361 48.226L260.367 39.2646L259.668 38.833L259.663 47.8473Z" fill="#CBD3FF"/>
<path d="M253.765 45.1112L254.636 45.5406L254.639 35.8978L253.768 35.4106L253.765 45.1112Z" fill="#CBD3FF"/>
<path d="M247.347 41.5057L248.215 41.9677L248.218 32.0714L247.349 31.5454L247.347 41.5057Z" fill="#CBD3FF"/>
<path d="M240.063 37.676L241.104 38.1875V27.7739L240.063 27.1919V37.676Z" fill="#CBD3FF"/>
<path d="M240.063 56.7212L283.259 73.7551L283.262 70.7606L240.063 52.4341V56.7212Z" fill="#CBD3FF"/>
<path d="M282.738 70.55L283.258 70.7528V63.4342L282.738 63.1943V70.55Z" fill="#CBD3FF"/>
<path d="M278.913 68.9901L279.442 69.2141L279.449 61.4493L278.921 61.1865L278.913 68.9901Z" fill="#CBD3FF"/>
<path d="M274.75 66.916L275.277 67.1399L275.284 59.689L274.757 59.4263L274.75 66.916Z" fill="#CBD3FF"/>
<path d="M270.247 65.2069L270.767 65.4644V57.2322L270.247 56.9307V65.2069Z" fill="#CBD3FF"/>
<path d="M265.211 63.116L265.911 63.3964L265.916 54.8098L265.218 54.48L265.211 63.116Z" fill="#CBD3FF"/>
<path d="M259.663 60.6078L260.361 60.904L260.367 52.2293L259.668 51.8818L259.663 60.6078Z" fill="#CBD3FF"/>
<path d="M253.765 58.2479L254.636 58.5847L254.639 49.1675L253.768 48.7725L253.765 58.2479Z" fill="#CBD3FF"/>
<path d="M247.347 55.4564L248.215 55.8268L248.218 46.0092L247.349 45.5771L247.347 55.4564Z" fill="#CBD3FF"/>
<path d="M240.063 52.4405L241.104 52.8531V42.4466L240.063 41.9634V52.4405Z" fill="#CBD3FF"/>
<path d="M240.063 71.469L283.259 84.0623L283.262 81.0678L240.063 67.1836V71.469Z" fill="#CBD3FF"/>
<path d="M282.738 80.9112L283.258 81.0646V73.7495L282.738 73.5591V80.9112Z" fill="#CBD3FF"/>
<path d="M278.915 79.7464L279.444 79.9174L279.451 72.1544L278.924 71.9463L278.915 79.7464Z" fill="#CBD3FF"/>
<path d="M274.581 78.0418L275.108 78.2111L275.113 70.7725L274.588 70.5645L274.581 78.0418Z" fill="#CBD3FF"/>
<path d="M270.072 76.6253L270.593 76.8228V68.5854L270.072 68.3438V76.6253Z" fill="#CBD3FF"/>
<path d="M265.04 75.2691L265.74 75.4949L265.745 66.4092L265.045 66.1323L265.04 75.2691Z" fill="#CBD3FF"/>
<path d="M259.663 73.3389L260.361 73.5629L260.367 64.8899L259.668 64.6147L259.663 73.3389Z" fill="#CBD3FF"/>
<path d="M253.765 71.5898L254.636 71.8437L254.639 62.4335L253.768 62.1196L253.765 71.5898Z" fill="#CBD3FF"/>
<path d="M247.347 69.4705L248.215 69.7509L248.218 59.9369L247.349 59.5947L247.347 69.4705Z" fill="#CBD3FF"/>
<path d="M240.063 67.1929L241.104 67.505V57.1073L240.063 56.7246V67.1929Z" fill="#CBD3FF"/>
<path d="M240.063 85.975L283.259 94.2001L283.262 91.2056L240.063 81.6914V85.975Z" fill="#CBD3FF"/>
<path d="M282.738 91.0946L283.258 91.2004V83.8888L282.738 83.7495V91.0946Z" fill="#CBD3FF"/>
<path d="M278.913 90.3263L279.442 90.4427L279.449 82.685L278.921 82.5298L278.913 90.3263Z" fill="#CBD3FF"/>
<path d="M274.75 89.1016L275.277 89.218L275.284 81.7724L274.757 81.6172L274.75 89.1016Z" fill="#CBD3FF"/>
<path d="M270.247 88.3218L270.767 88.4558V80.2343L270.247 80.0562V88.3218Z" fill="#CBD3FF"/>
<path d="M265.04 87.4468L265.74 87.602L265.745 78.5198L265.045 78.3135L265.04 87.4468Z" fill="#CBD3FF"/>
<path d="M259.663 85.8642L260.361 86.0176L260.367 77.3499L259.668 77.1436L259.663 85.8642Z" fill="#CBD3FF"/>
<path d="M253.765 84.7087L254.636 84.8833L254.639 75.4784L253.768 75.2456L253.765 84.7087Z" fill="#CBD3FF"/>
<path d="M247.347 83.2524L248.215 83.4428L248.218 73.6341L247.349 73.3784L247.347 83.2524Z" fill="#CBD3FF"/>
<path d="M240.063 81.7L241.104 81.9134V71.5227L240.063 71.2388V81.7Z" fill="#CBD3FF"/>
<path d="M240.063 100.707L283.259 104.497L283.262 101.504L240.063 96.4268V100.707Z" fill="#CBD3FF"/>
<path d="M282.738 101.442L283.258 101.499V94.1908L282.738 94.0991V101.442Z" fill="#CBD3FF"/>
<path d="M278.915 101.078L279.444 101.14L279.451 93.3818L278.924 93.2812L278.915 101.078Z" fill="#CBD3FF"/>
<path d="M274.75 100.277L275.277 100.338L275.284 92.8945L274.757 92.7939L274.75 100.277Z" fill="#CBD3FF"/>
<path d="M270.247 99.9662L270.767 100.037V91.8205L270.247 91.7041V99.9662Z" fill="#CBD3FF"/>
<path d="M265.038 99.6122L265.738 99.6951L265.744 90.6165L265.044 90.4824L265.038 99.6122Z" fill="#CBD3FF"/>
<path d="M259.663 98.5776L260.361 98.6605L260.367 89.9946L259.668 89.8623L259.663 98.5776Z" fill="#CBD3FF"/>
<path d="M253.765 98.0442L254.636 98.1359L254.639 88.7381L253.768 88.5864L253.765 98.0442Z" fill="#CBD3FF"/>
<path d="M247.347 97.2459L248.215 97.3482L248.218 87.5413L247.349 87.3755L247.347 97.2459Z" fill="#CBD3FF"/>
<path d="M240.063 96.4302L241.104 96.5449V86.1612L240.063 85.9761V96.4302Z" fill="#CBD3FF"/>
<path d="M240.063 13.1229V9.30664L284.681 41.6532L283.266 43.295L240.063 13.1229Z" fill="#CBD3FF"/>
<path d="M279.503 50.813L283.259 53.1179L283.196 111.794L279.443 111.737L279.503 50.813Z" fill="#0072B4"/>
<path d="M240.063 27.1948L247.379 31.5115L247.164 111.262L240.063 111.156V27.1948Z" fill="#CBD3FF"/>
<path d="M297.001 54.9018L275.702 41.0176V113.385L297.001 113.415V54.9018Z" fill="#C8C6EC"/>
<path d="M297.001 59.2951L275.702 45.0124V113.381L279.179 113.372L279.498 53.6097L297.001 63.7746V59.2951Z" fill="#A4A1E0"/>
<path d="M240.062 56.7681L275.703 41.0005V113.38L240.062 113.203V56.7681Z" fill="#E9E8F8"/>
<path d="M275.702 44.9538L240.134 59.7298V64.3249L270.073 53.0631V113.411L275.702 113.381L275.702 44.9538Z" fill="#CBD3FF"/>
<path d="M266.194 65.6477L243.177 72.4567L243.235 66.4801L266.205 58.6694L266.194 65.6477Z" fill="#0083C7"/>
<path d="M266.177 79.4616L243.066 84.2742L243.123 78.2483L266.186 72.4146L266.177 79.4616Z" fill="#0083C7"/>
<path d="M266.159 93.4093L242.955 96.1904L243.013 90.1133L266.168 86.2935L266.159 93.4093Z" fill="#0083C7"/>
<path d="M299.006 72.186C299.006 73.4137 298.742 74.5814 298.267 75.6383C301.248 76.6498 303.264 78.5807 303.264 80.7965C303.264 84.0601 298.892 86.7058 293.499 86.7058C291.211 86.7058 289.106 86.2294 287.442 85.4317C286.206 86.2166 284.462 86.7057 282.529 86.7057C281.034 86.7057 279.653 86.4134 278.532 85.9181C277.41 86.4134 276.029 86.7057 274.535 86.7057C270.787 86.7057 267.748 84.8669 267.748 82.5987C267.748 81.1888 268.922 79.9449 270.711 79.2053C270.117 78.4421 269.784 77.5896 269.784 76.69C269.784 74.3246 272.081 72.2837 275.398 71.3396C275.387 71.2078 275.381 71.0744 275.381 70.9397C275.381 68.3645 277.525 66.277 280.169 66.277C281.219 66.277 282.191 66.6063 282.98 67.1647C284.585 64.9908 287.205 63.5752 290.164 63.5752C295.047 63.5752 299.006 67.4304 299.006 72.186Z" fill="#38BA58"/>
<path d="M303.265 80.9443C302.379 83.6552 298.241 86.7072 293.501 86.7072C291.213 86.7072 288.135 85.2047 287.444 81.554C286.681 84.6592 286.175 86.2578 283.443 86.2578C281.949 86.2578 279.99 86.7072 279.2 80.6831C279.2 85.8631 276.032 86.7072 274.538 86.7072C271.486 86.7072 268.602 84.0281 267.749 82.3507C267.554 82.7581 267.752 84.6509 267.752 85.0995C268.329 88.467 270.79 89.4707 274.538 89.4707C276.032 89.4707 277.413 89.1596 278.535 88.6328C279.2 90.1116 280.007 90.8678 282.555 90.8678C285.832 90.8678 286.208 88.9501 287.444 88.1148C289.108 88.9638 291.021 90.7209 293.309 90.7209C298.702 90.7209 302.423 87.9912 303.266 83.1812C303.266 82.7607 303.388 81.3417 303.265 80.9443Z" fill="#239842"/>
<path d="M284.307 112.318L285.388 78.3662H286.024L286.887 112.318H284.307Z" fill="#8B532F"/>
<path d="M285.746 93.0201C287.866 92.314 292.531 88.4883 294.597 82.0291C294.811 82.0294 294.909 82.0295 294.944 82.0294C295.047 82.0293 294.597 82.0283 294.944 82.0283C294.944 82.0287 294.944 82.0291 294.944 82.0294C294.179 85.9712 290.971 93.1903 285.746 94.4136V93.0201Z" fill="#8B532F"/>
<path d="M284.972 96.3517C282.852 95.6457 278.498 92.7614 276.432 86.3022C276.322 86.3417 276.196 86.3999 276.027 86.4419C276.024 86.4419 276.034 86.4419 276.027 86.4419C276.792 90.3837 279.747 96.5219 284.972 97.7452V96.3517Z" fill="#8B532F"/>
<path d="M282.805 82.5234L285.637 88.7338V86.7305L283.212 82.5234H282.805Z" fill="#8B532F"/>
<path d="M294.928 82.524C293.443 82.524 293.153 81.6652 292.66 81.1582C294.811 82.5222 296.652 81.4277 297.263 81.1582C296.529 82.2115 296.412 82.524 294.928 82.524Z" fill="#239842"/>
<path d="M282.767 83.2061C281.283 83.2061 280.993 82.3473 280.499 81.8403C282.651 83.2043 284.491 82.1098 285.102 81.8403C284.369 82.8936 284.252 83.2061 282.767 83.2061Z" fill="#239842"/>
<path d="M285.713 79.0489C284.228 79.0489 283.938 78.1901 283.445 77.6831C285.596 79.0471 287.437 77.9526 288.048 77.6831C287.314 78.7364 287.197 79.0489 285.713 79.0489Z" fill="#239842"/>
</g>
<defs>
<clipPath id="clip0_8389_36607">
<rect y="100" width="100" height="340" rx="8" transform="rotate(-90 0 100)" fill="white"/>
</clipPath>
</defs>
</svg>
