<svg width="300" height="300" viewBox="0 0 300 300" fill="none" xmlns="http://www.w3.org/2000/svg">
<path d="M150.28 275C219.316 275 275.28 219.036 275.28 150C275.28 80.9644 219.316 25 150.28 25C81.2447 25 25.2803 80.9644 25.2803 150C25.2803 219.036 81.2447 275 150.28 275Z" fill="#D3EDFF"/>
<mask id="mask0_760_35584" style="mask-type:alpha" maskUnits="userSpaceOnUse" x="25" y="25" width="251" height="250">
<path d="M150.28 275C219.316 275 275.28 219.036 275.28 150C275.28 80.9644 219.316 25 150.28 25C81.2447 25 25.2803 80.9644 25.2803 150C25.2803 219.036 81.2447 275 150.28 275Z" fill="#D4ECFA"/>
</mask>
<g mask="url(#mask0_760_35584)">
<rect x="9.69336" y="116.465" width="281.174" height="158.535" fill="#AEDCF2"/>
<path fill-rule="evenodd" clip-rule="evenodd" d="M86.3871 195.243C93.5153 198.322 81.6096 199.752 41.841 196.49C34.0376 196.715 28.512 194.902 24.6619 192.787C22.89 191.152 20.6717 189.56 18.5566 188.232C18.435 188.116 18.3198 188.006 18.211 187.901L18.2099 187.9L18.2097 187.9L18.2095 187.9L18.2095 187.9C17.2089 186.94 16.7384 186.488 16.6161 187.069C17.2415 187.426 17.894 187.816 18.5566 188.232C19.8126 189.428 21.7619 191.193 24.6619 192.787C29.0537 196.838 30.7044 201.153 21.2513 202.365C6.78935 204.219 6.26416 216.734 7.80931 222.76C13.7579 228.245 22.0858 239.957 7.80931 242.923C-6.46723 245.89 21.9467 252.503 37.9382 255.438L79.5475 242.923C101.001 236.897 108.335 236.333 103.963 238.731C102.752 239.394 101.487 239.798 100.561 240.093C98.1402 240.864 98.0292 240.9 107.235 242.923C135.031 244.956 156.647 244.592 170.738 242.923C184.829 241.255 226.576 230.609 228.044 227.828L141.446 189.743C135.139 192.446 118.365 192.368 104.592 192.304C90.3468 192.238 79.3121 192.186 86.3871 195.243ZM134.944 216.712C138.538 215.33 141.52 214.182 145.465 214.679C153.262 215.661 144.017 216.98 138.42 217.517C135.288 218.156 134.013 219.572 140.589 220.124C146.865 220.651 137.331 221.826 132.502 222.421L131.844 222.502C127.499 222.988 117.824 223.576 113.878 222.042C111.025 220.932 113.113 220.782 116.67 220.525C118.031 220.427 119.607 220.313 121.204 220.124C127.344 219.637 131.435 218.063 134.944 216.712ZM145.851 193.347C138.054 192.366 122.484 194.217 115.674 195.265C113.56 196.441 110.319 199.176 114.264 200.71C118.21 202.244 127.885 201.656 132.23 201.171C136.77 200.608 144.207 199.345 137.631 198.793C131.055 198.241 135.674 196.824 138.805 196.185C144.402 195.648 153.647 194.329 145.851 193.347ZM62.1081 217.895C68.9186 216.846 84.4888 214.995 92.2854 215.977C100.082 216.959 90.8369 218.278 85.2398 218.815C82.1085 219.454 77.4898 220.871 84.0656 221.423C90.6414 221.975 83.2046 223.238 78.6642 223.8C74.3196 224.286 64.6441 224.874 60.6987 223.34C56.7534 221.806 59.9944 219.071 62.1081 217.895ZM104.842 208.169C104.842 208.872 102.878 209.443 100.455 209.443C98.0322 209.443 96.068 208.872 96.068 208.169C96.068 207.465 98.0322 206.895 100.455 206.895C102.878 206.895 104.842 207.465 104.842 208.169ZM131.449 234.893C133.872 234.893 135.836 234.323 135.836 233.62C135.836 232.916 133.872 232.346 131.449 232.346C129.026 232.346 127.062 232.916 127.062 233.62C127.062 234.323 129.026 234.893 131.449 234.893Z" fill="#7AC5E8"/>
<path d="M300 37.8162L217.069 179.487" stroke="#498F79" stroke-width="12.2319" stroke-linecap="round"/>
<mask id="mask1_760_35584" style="mask-type:alpha" maskUnits="userSpaceOnUse" x="119" y="169" width="121" height="72">
<path d="M134.133 188.247C151.399 181.484 164.552 189.622 186.613 170.056C186.861 169.836 187.211 169.769 187.509 169.917C201.953 177.066 237.672 199.377 239.806 211.598C241.013 218.507 223.757 235.483 201.98 235.483C179.332 234.322 166.559 242.926 152.861 240.235C152.337 240.132 152.073 239.551 152.322 239.08L152.734 238.303C153.06 237.687 152.513 236.972 151.833 237.126L149.526 237.647C148.815 237.807 148.267 237.025 148.66 236.412L149.87 234.521C150.217 233.978 149.827 233.266 149.183 233.266H146.954C146.355 233.266 145.96 232.641 146.218 232.1L146.885 230.699C147.175 230.091 146.644 229.414 145.984 229.55L142.585 230.25C141.936 230.383 141.407 229.729 141.674 229.123L142.654 226.895C142.891 226.356 142.497 225.751 141.908 225.751H138.339C137.726 225.751 137.332 225.1 137.616 224.557L138.485 222.898C138.77 222.355 138.376 221.704 137.763 221.704H135.753C135.083 221.704 134.699 220.941 135.098 220.403L136.026 219.151C136.425 218.613 136.041 217.85 135.371 217.85H133.092C132.489 217.85 132.095 217.219 132.358 216.677L133.562 214.204C133.826 213.663 133.431 213.032 132.829 213.032H130.44C129.785 213.032 129.397 212.299 129.766 211.757L130.919 210.067C131.288 209.526 130.9 208.793 130.245 208.793H128.514C127.805 208.793 127.434 207.951 127.912 207.427L128.806 206.448C129.284 205.925 128.913 205.083 128.204 205.083H125.722C125.024 205.083 124.649 204.263 125.105 203.735L125.739 202.999C126.15 202.523 125.889 201.78 125.27 201.665L123.135 201.268C122.577 201.164 122.293 200.535 122.585 200.047L123.203 199.015C123.529 198.471 123.137 197.78 122.504 197.78H121.102C118.206 197.66 116.758 195.053 134.133 188.247Z" fill="#F8F8F8"/>
</mask>
<g mask="url(#mask1_760_35584)">
<path d="M134.133 188.247C151.399 181.484 164.552 189.622 186.613 170.056C186.861 169.836 187.211 169.769 187.509 169.917C201.953 177.066 237.672 199.377 239.806 211.598C241.013 218.507 223.757 235.483 201.98 235.483C179.332 234.322 166.559 242.926 152.861 240.235C152.337 240.132 152.073 239.551 152.322 239.08L152.734 238.303C153.06 237.687 152.513 236.972 151.833 237.126L149.526 237.647C148.815 237.807 148.267 237.025 148.66 236.412L149.87 234.521C150.217 233.978 149.827 233.266 149.183 233.266H146.954C146.355 233.266 145.96 232.641 146.218 232.1L146.885 230.699C147.175 230.091 146.644 229.414 145.984 229.55L142.585 230.25C141.936 230.383 141.407 229.729 141.674 229.123L142.654 226.895C142.891 226.356 142.497 225.751 141.908 225.751H138.339C137.726 225.751 137.332 225.1 137.616 224.557L138.485 222.898C138.77 222.355 138.376 221.704 137.763 221.704H135.753C135.083 221.704 134.699 220.941 135.098 220.403L136.026 219.151C136.425 218.613 136.041 217.85 135.371 217.85H133.092C132.489 217.85 132.095 217.219 132.358 216.677L133.562 214.204C133.826 213.663 133.431 213.032 132.829 213.032H130.44C129.785 213.032 129.397 212.299 129.766 211.757L130.919 210.067C131.288 209.526 130.9 208.793 130.245 208.793H128.514C127.805 208.793 127.434 207.951 127.912 207.427L128.806 206.448C129.284 205.925 128.913 205.083 128.204 205.083H125.722C125.024 205.083 124.649 204.263 125.105 203.735L125.739 202.999C126.15 202.523 125.889 201.78 125.27 201.665L123.135 201.268C122.577 201.164 122.293 200.535 122.585 200.047L123.203 199.015C123.529 198.471 123.137 197.78 122.504 197.78H121.102C118.206 197.66 116.758 195.053 134.133 188.247Z" fill="#F8F8F8"/>
<path d="M185.279 231.864C177.607 231.481 159.065 237.352 150.754 240.336L161.943 244.651L217.885 238.897L239.942 223.233L243.458 206.291L183.638 162.48V171.149C178.77 178.389 233.743 202.405 229.577 215.534C227.96 220.629 222.573 224.512 217.885 225.791C210.213 227.975 192.951 232.248 185.279 231.864Z" fill="#EFEFEF"/>
<path d="M130.035 183.849C126.27 183.849 113.612 186.531 93.0938 197.26L126.741 252.554L173.8 248.319C182.741 242.75 197.847 231.754 186.741 232.319C175.635 232.884 173.486 229.103 173.8 227.143C177.094 222.201 181.706 212.131 173.8 211.378C165.894 210.625 154.349 206.515 149.565 204.554C146.82 202.123 142.976 196.131 149.565 191.613C156.153 187.096 139.29 184.554 130.035 183.849Z" fill="#EFEFEF"/>
<path opacity="0.5" d="M146.185 233.007C157.036 227.535 183.09 216.727 200.506 217.268" stroke="#E4E4E4" stroke-width="2.44637" stroke-linecap="round"/>
<path opacity="0.5" d="M133.367 225.814C143.478 219.073 168.038 205.199 185.391 203.634" stroke="#E4E4E4" stroke-width="2.44637" stroke-linecap="round"/>
<path opacity="0.5" d="M125.233 211.815C135.811 205.835 161.324 193.804 178.745 193.518" stroke="#E4E4E4" stroke-width="2.44637" stroke-linecap="round"/>
</g>
<path d="M241.48 202.077L196.125 167.535L193.878 170.938L239.234 205.479L241.48 202.077Z" fill="#310A81"/>
<path d="M196.124 167.535C193.678 165.673 190.393 165.344 187.626 166.685L185.38 170.088C188.146 168.746 191.432 169.075 193.878 170.938L196.124 167.535Z" fill="#310A81"/>
<path d="M187.625 166.685L187.306 166.84L185.06 170.242L185.379 170.088L187.625 166.685Z" fill="#310A81"/>
<path d="M185.683 168.253C186.066 167.672 186.61 167.177 187.306 166.84L185.06 170.242C184.363 170.58 183.82 171.075 183.436 171.655L185.683 168.253Z" fill="#310A81"/>
<path d="M242.465 207.884C243.65 206.088 243.377 203.522 241.478 202.076L239.232 205.479C241.131 206.925 241.404 209.49 240.218 211.287L242.465 207.884Z" fill="#310A81"/>
<path d="M186.596 173.736C184.811 172.36 184.568 169.944 185.683 168.254L183.438 171.655C182.321 173.345 182.564 175.762 184.349 177.139L186.596 173.736Z" fill="#310A81"/>
<path d="M240.838 209.336C241.533 208.979 242.077 208.473 242.465 207.886L240.22 211.287C239.832 211.875 239.287 212.381 238.592 212.738L240.838 209.336Z" fill="#310A81"/>
<path d="M231.638 208.493C234.282 210.533 237.867 210.861 240.837 209.335L238.591 212.738C235.62 214.264 232.036 213.935 229.392 211.895L231.638 208.493Z" fill="#310A81"/>
<path d="M186.595 173.736L231.638 208.493L229.392 211.895L184.348 177.139L186.595 173.736Z" fill="#310A81"/>
<path d="M187.626 166.685L187.307 166.84C184.582 168.161 184.197 171.887 186.595 173.737L231.638 208.493C234.282 210.533 237.867 210.861 240.837 209.336C243.655 207.888 244 203.996 241.479 202.077L196.124 167.535C193.678 165.673 190.392 165.344 187.626 166.685Z" fill="#442EA4"/>
<path d="M215.543 169.967L207.904 181.89C203.931 187.652 216.288 195.333 220.587 187.818C221.093 186.68 226.434 175.597 226.434 175.597C221.006 175.813 217.44 173.659 215.543 169.967Z" fill="#4C39B0"/>
</g>
<path d="M109.991 150.24L41.1338 163.153L65.9018 163.153L75.4802 160.737H120.56L117.257 163.153H141.036L211.54 150.24L109.991 150.24Z" fill="#7AC5E8"/>
<path fill-rule="evenodd" clip-rule="evenodd" d="M186.307 43.5879C185.385 39.9993 181.229 37.1008 176.986 37.1008H74.4658L74.478 37.1463C78.1382 37.5039 81.5594 39.9279 82.6775 42.9695L108.632 147.447C109.031 149.053 110.692 150.352 112.345 150.352H132.261C133.918 150.352 134.94 149.048 134.545 147.439L130.92 132.679C130.524 131.07 131.547 129.766 133.204 129.766H178.695C180.352 129.766 182.016 131.07 182.411 132.679L186.036 147.439C186.431 149.048 188.095 150.352 189.752 150.352H209.655C211.313 150.352 212.336 149.047 211.939 147.437L186.475 44.0904C186.433 43.9191 186.376 43.7512 186.307 43.5879Z" fill="#FF8D18"/>
<path fill-rule="evenodd" clip-rule="evenodd" d="M65.9511 43.7224C67.1469 40.0056 71.0807 37.1008 75.0932 37.1008H177.613L177.601 37.1518C173.67 37.5823 170.015 40.6839 169.192 44.4454L167.585 51.7901H167.547L143.317 161.115C142.959 162.73 141.33 164.038 139.676 164.038H119.761C118.104 164.038 117.049 162.726 117.404 161.108L121.176 143.894C121.53 142.276 120.475 140.964 118.818 140.964H73.3269C71.6701 140.964 70.0394 142.276 69.6847 143.894L65.9125 161.108C65.5579 162.726 63.9272 164.038 62.2703 164.038H42.3668C40.7092 164.038 39.6535 162.725 40.0095 161.106L65.6208 44.6007C65.688 44.295 65.8009 43.9999 65.9511 43.7224Z" fill="#FEE283"/>
<path fill-rule="evenodd" clip-rule="evenodd" d="M123.321 58.2684L134.876 101.603C137.089 109.902 129.788 120.29 121.741 120.29H79.6378C71.5908 120.29 68.842 109.902 74.6926 101.603L105.241 58.2684C111.079 49.9861 121.113 49.9861 123.321 58.2684ZM106.692 92.9106C108.167 92.9106 109.675 91.4856 110.06 89.7278L114.523 69.365C114.908 67.6071 114.025 66.1822 112.55 66.1822C111.075 66.1822 109.567 67.6071 109.182 69.365L104.719 89.7278C104.334 91.4856 105.217 92.9106 106.692 92.9106ZM107.268 106.533C107.781 104.189 106.604 102.289 104.637 102.289C102.67 102.289 100.66 104.189 100.146 106.533C99.6325 108.877 100.81 110.776 102.777 110.776C104.744 110.776 106.754 108.877 107.268 106.533Z" fill="#DB4747"/>
</svg>
