<svg width="108" height="36" viewBox="0 0 108 36" fill="none" xmlns="http://www.w3.org/2000/svg">
<g clip-path="url(#clip0_8330_101012)">
<path d="M99.3993 0.00109356H8.60506C8.2741 0.00109356 7.94712 0.00109356 7.61703 0.00289356C7.34073 0.00469356 7.06662 0.00992256 6.78766 0.0143236C6.18162 0.0214352 5.57701 0.0746022 4.97908 0.173363C4.382 0.274273 3.80361 0.464518 3.26349 0.737663C2.72403 1.01312 2.23111 1.37104 1.80262 1.79846C1.37187 2.22467 1.01281 2.71731 0.739241 3.25744C0.464918 3.79649 0.274702 4.37414 0.175162 4.97043C0.0746754 5.56596 0.0206028 6.16836 0.0134291 6.77223C0.00505369 7.04817 0.00416921 7.32502 -0.000244141 7.601V28.4038C0.00416921 28.6833 0.00505369 28.954 0.0134291 29.2335C0.020605 29.8374 0.0746776 30.4397 0.175162 31.0353C0.274427 31.6319 0.464655 32.2099 0.739241 32.7491C1.01268 33.2875 1.3718 33.7782 1.80262 34.202C2.22949 34.6313 2.72273 34.9895 3.26349 35.2628C3.80361 35.5367 4.38193 35.7281 4.97908 35.8305C5.57712 35.9285 6.18166 35.9817 6.78766 35.9897C7.06662 35.9958 7.34073 35.9993 7.61703 35.9993C7.94711 36.0011 8.27412 36.0011 8.60506 36.0011H99.3993C99.7237 36.0011 100.053 36.0011 100.378 35.9993C100.653 35.9993 100.935 35.9958 101.21 35.9897C101.815 35.9821 102.418 35.9289 103.015 35.8305C103.614 35.7274 104.194 35.536 104.737 35.2628C105.277 34.9893 105.77 34.6312 106.197 34.202C106.626 33.7765 106.986 33.2862 107.263 32.7491C107.535 32.2095 107.724 31.6315 107.822 31.0353C107.922 30.4397 107.978 29.8374 107.989 29.2335C107.993 28.954 107.993 28.6833 107.993 28.4038C108 28.0769 108 27.7517 108 27.4194V8.58361C108 8.25402 108 7.92707 107.993 7.601C107.993 7.32502 107.993 7.04817 107.989 6.77219C107.978 6.16827 107.922 5.56601 107.822 4.97039C107.724 4.37445 107.535 3.79685 107.263 3.2574C106.706 2.17477 105.822 1.29352 104.737 0.737582C104.194 0.465104 103.614 0.27491 103.015 0.173282C102.418 0.0740861 101.815 0.0209006 101.21 0.0141976C100.935 0.00980556 100.653 0.00453156 100.378 0.00277656C100.053 0.000976562 99.7237 0.00109356 99.3993 0.00109356Z" fill="#A6A6A6"/>
<path d="M7.62137 35.2131C7.34638 35.2131 7.07804 35.2096 6.80522 35.2035C6.24004 35.1961 5.67618 35.147 5.11827 35.0567C4.59805 34.9673 4.09409 34.8011 3.62302 34.5636C3.15627 34.328 2.73056 34.019 2.36219 33.6486C1.98849 33.2826 1.67737 32.858 1.44115 32.3918C1.20233 31.9225 1.03706 31.4195 0.951081 30.9003C0.858233 30.3424 0.807999 29.7783 0.800811 29.2128C0.795089 29.023 0.787598 28.391 0.787598 28.391V7.60049C0.787598 7.60049 0.795576 6.97822 0.800856 6.79541C0.807738 6.23082 0.857681 5.66757 0.950251 5.11054C1.03639 4.58991 1.20179 4.08546 1.44074 3.61465C1.67609 3.14874 1.98548 2.72386 2.35693 2.3565C2.72796 1.98565 3.15503 1.67513 3.62258 1.43627C4.09256 1.19947 4.59557 1.03445 5.11474 0.946729C5.67449 0.855438 6.2403 0.806082 6.80744 0.799075L7.62181 0.788086H100.373L101.197 0.799516C101.759 0.806175 102.32 0.855091 102.874 0.945847C103.399 1.03466 103.907 1.20084 104.383 1.43891C105.319 1.92027 106.081 2.68183 106.562 3.61685C106.797 4.08441 106.96 4.58474 107.045 5.10088C107.139 5.66248 107.191 6.23015 107.202 6.79937C107.205 7.05425 107.205 7.32803 107.205 7.60049C107.212 7.93799 107.212 8.25923 107.212 8.5831V27.4189C107.212 27.7459 107.212 28.0649 107.205 28.3866C107.205 28.6793 107.205 28.9474 107.201 29.2233C107.191 29.7824 107.139 30.3399 107.047 30.8915C106.963 31.4144 106.798 31.9213 106.56 32.3945C106.322 32.8556 106.012 33.2765 105.643 33.6416C105.274 34.014 104.848 34.3247 104.38 34.5618C103.906 34.8012 103.398 34.9681 102.874 35.0567C102.317 35.1475 101.753 35.1966 101.188 35.2035C100.923 35.2096 100.646 35.2131 100.378 35.2131L99.3992 35.2149L7.62137 35.2131Z" fill="black"/>
<path d="M22.3542 18.2721C22.3639 17.5209 22.564 16.7843 22.9359 16.131C23.3078 15.4776 23.8393 14.9287 24.4811 14.5352C24.0734 13.9546 23.5355 13.4767 22.9102 13.1396C22.2849 12.8025 21.5894 12.6155 20.879 12.5933C19.3634 12.4347 17.8941 13.4976 17.1218 13.4976C16.3346 13.4976 15.1455 12.609 13.8651 12.6353C13.0368 12.662 12.2297 12.9022 11.5222 13.3324C10.8147 13.7627 10.2311 14.3683 9.82814 15.0904C8.08265 18.104 9.38463 22.5329 11.0567 24.9689C11.8932 26.1617 12.8709 27.4941 14.1502 27.4468C15.402 27.3951 15.8696 26.6508 17.3807 26.6508C18.8778 26.6508 19.3164 27.4468 20.6217 27.4168C21.965 27.3951 22.8113 26.2187 23.6185 25.0146C24.2196 24.1646 24.6821 23.2253 24.9889 22.2313C24.2085 21.9022 23.5425 21.3512 23.074 20.6471C22.6055 19.9431 22.3551 19.117 22.3542 18.2721Z" fill="white"/>
<path d="M19.8888 10.9912C20.6213 10.1144 20.9821 8.98742 20.8947 7.84961C19.7757 7.96681 18.7421 8.50011 17.9998 9.34326C17.6369 9.75516 17.3589 10.2343 17.1818 10.7534C17.0046 11.2725 16.9319 11.8213 16.9676 12.3685C17.5273 12.3743 18.081 12.2533 18.587 12.0147C19.093 11.7761 19.5381 11.4262 19.8888 10.9912Z" fill="white"/>
<path d="M38.1787 24.4269H33.9067L32.8807 27.4477H31.0713L35.1177 16.2715H36.9976L41.044 27.4477H39.2037L38.1787 24.4269ZM34.3491 23.0329H37.7354L36.0661 18.1304H36.0194L34.3491 23.0329Z" fill="white"/>
<path d="M49.783 23.3743C49.783 25.9064 48.4239 27.5332 46.373 27.5332C45.8534 27.5603 45.3367 27.441 44.882 27.1889C44.4274 26.9368 44.0531 26.562 43.802 26.1076H43.7632V30.1436H42.0859V19.2997H43.7095V20.6549H43.7403C44.0029 20.2027 44.3835 19.8299 44.8417 19.5763C45.2998 19.3226 45.8184 19.1975 46.3421 19.2144C48.416 19.2144 49.783 20.8492 49.783 23.3743ZM48.059 23.3743C48.059 21.7246 47.2041 20.64 45.8997 20.64C44.6181 20.64 43.7562 21.7474 43.7562 23.3743C43.7562 25.0161 44.6181 26.1156 45.8997 26.1156C47.2041 26.1156 48.059 25.0389 48.059 23.3743Z" fill="white"/>
<path d="M58.7762 23.3743C58.7762 25.9064 57.4171 27.5332 55.3661 27.5332C54.8466 27.5603 54.3299 27.441 53.8752 27.1889C53.4205 26.9367 53.0462 26.562 52.7952 26.1076H52.7564V30.1436H51.0791V19.2996H52.7026V20.6549H52.7334C52.996 20.2027 53.3767 19.8299 53.8348 19.5763C54.293 19.3226 54.8115 19.1975 55.3353 19.2144C57.4092 19.2144 58.7762 20.8492 58.7762 23.3743ZM57.0522 23.3743C57.0522 21.7246 56.1973 20.64 54.8928 20.64C53.6113 20.64 52.7493 21.7474 52.7493 23.3743C52.7493 25.0161 53.6113 26.1156 54.8928 26.1156C56.1973 26.1156 57.0522 25.0389 57.0522 23.3743Z" fill="white"/>
<path d="M64.7204 24.3335C64.8446 25.4418 65.9243 26.1695 67.3997 26.1695C68.8135 26.1695 69.8306 25.4418 69.8306 24.4425C69.8306 23.575 69.2171 23.0556 67.7646 22.6996L66.3121 22.3507C64.2541 21.855 63.2987 20.8952 63.2987 19.3378C63.2987 17.4095 64.9839 16.085 67.3768 16.085C69.745 16.085 71.3686 17.4095 71.4232 19.3378H69.7301C69.6287 18.2225 68.7041 17.5492 67.353 17.5492C66.0019 17.5492 65.0773 18.2304 65.0773 19.2218C65.0773 20.0119 65.6678 20.4769 67.1124 20.8328L68.3472 21.1351C70.6467 21.6774 71.6021 22.5985 71.6021 24.2333C71.6021 26.3242 69.9319 27.6338 67.2754 27.6338C64.79 27.6338 63.1118 26.3549 63.0034 24.3335L64.7204 24.3335Z" fill="white"/>
<path d="M75.2219 17.3711V19.2994H76.7758V20.6239H75.2219V25.116C75.2219 25.8139 75.533 26.1391 76.2161 26.1391C76.4006 26.1359 76.5847 26.1229 76.7678 26.1004V27.417C76.4607 27.4742 76.1486 27.5001 75.8362 27.4943C74.1819 27.4943 73.5367 26.8747 73.5367 25.2944V20.6239H72.3486V19.2994H73.5367V17.3711H75.2219Z" fill="white"/>
<path d="M77.6758 23.374C77.6758 20.8103 79.19 19.1992 81.5512 19.1992C83.9203 19.1992 85.4275 20.8102 85.4275 23.374C85.4275 25.9448 83.9282 27.5488 81.5512 27.5488C79.175 27.5488 77.6758 25.9448 77.6758 23.374ZM83.7185 23.374C83.7185 21.6153 82.9103 20.5773 81.5512 20.5773C80.1921 20.5773 79.3848 21.6232 79.3848 23.374C79.3848 25.1397 80.1921 26.1698 81.5512 26.1698C82.9103 26.1698 83.7185 25.1397 83.7185 23.374Z" fill="white"/>
<path d="M86.8101 19.2996H88.4098V20.6865H88.4486C88.5568 20.2533 88.8113 19.8705 89.1692 19.6024C89.5271 19.3343 89.9667 19.1973 90.414 19.2143C90.6073 19.2136 90.8001 19.2346 90.9887 19.2767V20.8412C90.7447 20.7668 90.4901 20.7327 90.2351 20.7401C89.9914 20.7302 89.7485 20.7731 89.523 20.8657C89.2975 20.9583 89.0948 21.0984 88.9287 21.2765C88.7627 21.4546 88.6373 21.6665 88.5611 21.8975C88.4849 22.1285 88.4597 22.3732 88.4873 22.6148V27.4479H86.8101L86.8101 19.2996Z" fill="white"/>
<path d="M98.722 25.0545C98.4964 26.5337 97.0518 27.5488 95.2036 27.5488C92.8265 27.5488 91.3511 25.9606 91.3511 23.4127C91.3511 20.8568 92.8344 19.1992 95.133 19.1992C97.3938 19.1992 98.8154 20.7478 98.8154 23.2185V23.7915H93.0442V23.8926C93.0176 24.1925 93.0552 24.4946 93.1546 24.7788C93.2541 25.0631 93.413 25.323 93.6209 25.5413C93.8288 25.7596 94.0809 25.9312 94.3605 26.0449C94.64 26.1586 94.9406 26.2117 95.2423 26.2006C95.6387 26.2376 96.0365 26.1461 96.3764 25.9396C96.7164 25.7331 96.9805 25.4227 97.1294 25.0545L98.722 25.0545ZM93.0521 22.6226H97.1373C97.1523 22.3529 97.1114 22.0831 97.0169 21.83C96.9224 21.5769 96.7765 21.346 96.5883 21.1518C96.4001 20.9577 96.1737 20.8043 95.9233 20.7016C95.6728 20.5988 95.4038 20.5487 95.133 20.5545C94.8599 20.5529 94.5892 20.6052 94.3364 20.7085C94.0837 20.8117 93.8539 20.9639 93.6605 21.1562C93.467 21.3484 93.3136 21.577 93.2092 21.8287C93.1048 22.0804 93.0514 22.3502 93.0521 22.6226Z" fill="white"/>
<path d="M34.139 7.85961C34.4907 7.83445 34.8435 7.88742 35.1721 8.01471C35.5008 8.142 35.797 8.34043 36.0394 8.59569C36.2818 8.85096 36.4643 9.15669 36.5739 9.49083C36.6835 9.82497 36.7173 10.1792 36.673 10.528C36.673 12.2436 35.7431 13.2298 34.139 13.2298H32.1938V7.85961H34.139ZM33.0303 12.4703H34.0456C34.2969 12.4853 34.5483 12.4442 34.7817 12.3501C35.015 12.2559 35.2244 12.111 35.3945 11.926C35.5646 11.741 35.6912 11.5205 35.7651 11.2806C35.839 11.0406 35.8583 10.7872 35.8216 10.5389C35.8556 10.2916 35.8344 10.0398 35.7593 9.80157C35.6843 9.56337 35.5574 9.34467 35.3877 9.16113C35.2179 8.97759 35.0096 8.83377 34.7776 8.73995C34.5455 8.64614 34.2956 8.60466 34.0456 8.6185H33.0303V12.4703Z" fill="white"/>
<path d="M37.618 11.2014C37.5924 10.935 37.623 10.6663 37.7076 10.4125C37.7923 10.1586 37.9293 9.9252 38.1098 9.72722C38.2902 9.52924 38.5102 9.37105 38.7555 9.2628C39.0009 9.15455 39.2662 9.09863 39.5345 9.09863C39.8028 9.09863 40.0681 9.15455 40.3135 9.2628C40.5588 9.37105 40.7788 9.52924 40.9592 9.72722C41.1397 9.9252 41.2767 10.1586 41.3614 10.4125C41.446 10.6663 41.4766 10.935 41.451 11.2014C41.4771 11.468 41.4469 11.7371 41.3624 11.9913C41.278 12.2456 41.1411 12.4794 40.9606 12.6778C40.7801 12.8762 40.56 13.0347 40.3144 13.1432C40.0688 13.2517 39.8031 13.3077 39.5345 13.3077C39.2659 13.3077 39.0002 13.2517 38.7546 13.1432C38.509 13.0347 38.2889 12.8762 38.1084 12.6778C37.9279 12.4794 37.791 12.2456 37.7066 11.9913C37.6221 11.7371 37.5919 11.468 37.618 11.2014ZM40.6261 11.2014C40.6261 10.3229 40.2303 9.80919 39.5358 9.80919C38.8387 9.80919 38.4465 10.3229 38.4465 11.2014C38.4465 12.0869 38.8387 12.5966 39.5358 12.5966C40.2304 12.5966 40.6261 12.0834 40.6261 11.2014Z" fill="white"/>
<path d="M46.5459 13.2294H45.7139L44.874 10.2446H44.8105L43.9741 13.2294H43.15L42.0298 9.17676H42.8433L43.5713 12.2692H43.6312L44.4668 9.17676H45.2362L46.0718 12.2692H46.1352L46.8597 9.17676H47.6618L46.5459 13.2294Z" fill="white"/>
<path d="M48.604 9.17694H49.3761V9.82074H49.436C49.5377 9.58951 49.7092 9.39568 49.9266 9.26625C50.144 9.13683 50.3964 9.07826 50.6488 9.09872C50.8465 9.08389 51.0451 9.11362 51.2297 9.18571C51.4144 9.2578 51.5804 9.37039 51.7155 9.51515C51.8506 9.65991 51.9513 9.83312 52.0102 10.022C52.069 10.2108 52.0845 10.4104 52.0555 10.606V13.2295H51.2534V10.8069C51.2534 10.1556 50.9696 9.83173 50.3764 9.83173C50.2422 9.82549 50.1082 9.84828 49.9836 9.89853C49.859 9.94878 49.7467 10.0253 49.6546 10.1228C49.5624 10.2204 49.4925 10.3367 49.4496 10.4637C49.4067 10.5907 49.3918 10.7255 49.4061 10.8587V13.2296H48.604L48.604 9.17694Z" fill="white"/>
<path d="M53.3335 7.59473H54.1355V13.2294H53.3335V7.59473Z" fill="white"/>
<path d="M55.2507 11.2014C55.2252 10.9351 55.2558 10.6664 55.3405 10.4125C55.4252 10.1586 55.5622 9.92522 55.7427 9.72723C55.9231 9.52924 56.1431 9.37105 56.3885 9.2628C56.6339 9.15455 56.8992 9.09863 57.1675 9.09863C57.4358 9.09863 57.7012 9.15455 57.9465 9.2628C58.1919 9.37105 58.4119 9.52924 58.5924 9.72723C58.7728 9.92522 58.9098 10.1586 58.9945 10.4125C59.0792 10.6664 59.1098 10.9351 59.0843 11.2014C59.1103 11.4681 59.0801 11.7371 58.9956 11.9914C58.9111 12.2457 58.7742 12.4795 58.5936 12.6779C58.4131 12.8763 58.193 13.0348 57.9474 13.1432C57.7018 13.2517 57.4361 13.3078 57.1675 13.3078C56.8989 13.3078 56.6332 13.2517 56.3876 13.1432C56.142 13.0348 55.9219 12.8763 55.7414 12.6779C55.5609 12.4795 55.424 12.2457 55.3395 11.9914C55.255 11.7371 55.2247 11.4681 55.2507 11.2014ZM58.2589 11.2014C58.2589 10.323 57.8631 9.80927 57.1686 9.80927C56.4714 9.80927 56.0793 10.323 56.0793 11.2015C56.0793 12.087 56.4715 12.5967 57.1686 12.5967C57.8631 12.5967 58.2589 12.0834 58.2589 11.2014Z" fill="white"/>
<path d="M59.9287 12.0834C59.9287 11.3539 60.4734 10.9333 61.4403 10.8736L62.5411 10.8103V10.4605C62.5411 10.0325 62.2573 9.79077 61.7091 9.79077C61.2614 9.79077 60.9511 9.95469 60.8621 10.2412H60.0856C60.1676 9.54511 60.8242 9.09863 61.7461 9.09863C62.765 9.09863 63.3396 9.60443 63.3396 10.4605V13.2295H62.5675V12.66H62.5041C62.3753 12.8643 62.1944 13.0308 61.9799 13.1426C61.7655 13.2544 61.5251 13.3074 61.2834 13.2963C61.1128 13.314 60.9403 13.2958 60.7772 13.243C60.6141 13.1901 60.4638 13.1038 60.3362 12.9895C60.2086 12.8753 60.1064 12.7356 60.0362 12.5795C59.966 12.4234 59.9294 12.2544 59.9287 12.0834ZM62.5411 11.7371V11.3983L61.5487 11.4616C60.989 11.4989 60.7352 11.6888 60.7352 12.046C60.7352 12.4108 61.0525 12.623 61.4888 12.623C61.6166 12.6359 61.7457 12.6231 61.8685 12.5852C61.9912 12.5473 62.1051 12.4852 62.2033 12.4025C62.3015 12.3199 62.382 12.2184 62.44 12.104C62.498 11.9897 62.5324 11.8649 62.5411 11.7371Z" fill="white"/>
<path d="M64.3936 11.2013C64.3936 9.92077 65.0537 9.10953 66.0805 9.10953C66.3345 9.09786 66.5866 9.15853 66.8073 9.28443C67.0279 9.41034 67.2081 9.59628 67.3268 9.82053H67.3867V7.59473H68.1887V13.2294H67.4202V12.5891H67.3567C67.2289 12.8118 67.0425 12.9955 66.8175 13.1201C66.5925 13.2447 66.3377 13.3056 66.0805 13.2962C65.0467 13.2962 64.3936 12.485 64.3936 11.2013ZM65.2221 11.2013C65.2221 12.0609 65.6284 12.5781 66.3079 12.5781C66.9839 12.5781 67.4017 12.0534 67.4017 11.2049C67.4017 10.3602 66.9795 9.82804 66.3079 9.82804C65.6328 9.82804 65.2221 10.3488 65.2221 11.2013Z" fill="white"/>
<path d="M71.5071 11.2014C71.4816 10.935 71.5121 10.6663 71.5968 10.4125C71.6815 10.1586 71.8185 9.9252 71.9989 9.72722C72.1794 9.52924 72.3993 9.37105 72.6447 9.2628C72.89 9.15455 73.1554 9.09863 73.4237 9.09863C73.692 9.09863 73.9573 9.15455 74.2026 9.2628C74.448 9.37105 74.6679 9.52924 74.8484 9.72722C75.0288 9.9252 75.1658 10.1586 75.2505 10.4125C75.3352 10.6663 75.3658 10.935 75.3402 11.2014C75.3662 11.468 75.336 11.7371 75.2516 11.9913C75.1671 12.2456 75.0302 12.4794 74.8497 12.6778C74.6692 12.8762 74.4491 13.0347 74.2035 13.1432C73.9579 13.2517 73.6923 13.3077 73.4237 13.3077C73.155 13.3077 72.8894 13.2517 72.6438 13.1432C72.3982 13.0347 72.1781 12.8762 71.9976 12.6778C71.8171 12.4794 71.6802 12.2456 71.5957 11.9913C71.5113 11.7371 71.4811 11.468 71.5071 11.2014ZM74.5152 11.2014C74.5152 10.3229 74.1195 9.80919 73.425 9.80919C72.7278 9.80919 72.3356 10.3229 72.3356 11.2014C72.3356 12.0869 72.7278 12.5966 73.425 12.5966C74.1195 12.5966 74.5152 12.0834 74.5152 11.2014Z" fill="white"/>
<path d="M76.4165 9.17694H77.1886V9.82074H77.2485C77.3502 9.58951 77.5217 9.39568 77.7391 9.26625C77.9565 9.13683 78.2089 9.07826 78.4613 9.09872C78.659 9.08389 78.8576 9.11362 79.0422 9.18571C79.2269 9.2578 79.3929 9.37039 79.528 9.51515C79.6631 9.65991 79.7638 9.83312 79.8227 10.022C79.8815 10.2108 79.897 10.4104 79.868 10.606V13.2295H79.0659V10.8069C79.0659 10.1556 78.7821 9.83173 78.189 9.83173C78.0547 9.82549 77.9207 9.84828 77.7961 9.89853C77.6715 9.94878 77.5592 10.0253 77.4671 10.1228C77.3749 10.2204 77.305 10.3367 77.2621 10.4637C77.2192 10.5907 77.2043 10.7255 77.2186 10.8587V13.2296H76.4165V9.17694Z" fill="white"/>
<path d="M84.3998 8.16797V9.19541H85.2803V9.86909H84.3998V11.953C84.3998 12.3775 84.5752 12.5634 84.9744 12.5634C85.0766 12.5631 85.1787 12.5569 85.2803 12.5449V13.2111C85.1362 13.2368 84.9903 13.2505 84.844 13.252C83.952 13.252 83.5968 12.9391 83.5968 12.1578V9.86906H82.9517V9.19537H83.5968V8.16797H84.3998Z" fill="white"/>
<path d="M86.376 7.59473H87.171V9.82803H87.2344C87.341 9.59464 87.5172 9.39971 87.739 9.2698C87.9607 9.13989 88.2173 9.08131 88.4736 9.10206C88.6703 9.09138 88.867 9.12413 89.0495 9.19797C89.2321 9.27181 89.3961 9.38491 89.5297 9.52922C89.6634 9.67352 89.7635 9.84547 89.8229 10.0328C89.8823 10.2201 89.8994 10.4182 89.8732 10.6129V13.2294H89.0704V10.8102C89.0704 10.1629 88.768 9.83505 88.2013 9.83505C88.0635 9.82378 87.9248 9.84268 87.7951 9.89042C87.6653 9.93817 87.5476 10.0136 87.4501 10.1115C87.3526 10.2093 87.2778 10.3273 87.2308 10.457C87.1838 10.5867 87.1658 10.7251 87.1781 10.8625V13.2294H86.376L86.376 7.59473Z" fill="white"/>
<path d="M94.5497 12.1353C94.4407 12.5057 94.2046 12.8261 93.8827 13.0404C93.5608 13.2548 93.1735 13.3494 92.7887 13.3078C92.521 13.3148 92.2549 13.2637 92.0089 13.1579C91.763 13.0521 91.5431 12.8943 91.3645 12.6952C91.1858 12.4962 91.0528 12.2608 90.9746 12.0054C90.8963 11.7499 90.8748 11.4806 90.9114 11.216C90.8757 10.9506 90.8977 10.6807 90.9757 10.4244C91.0538 10.1682 91.1861 9.93175 91.3638 9.73098C91.5415 9.53022 91.7603 9.36986 92.0056 9.26078C92.2508 9.15169 92.5167 9.09642 92.7852 9.0987C93.916 9.0987 94.5982 9.8691 94.5982 11.1417V11.4208H91.7284V11.4656C91.7158 11.6143 91.7346 11.764 91.7834 11.9051C91.8323 12.0462 91.9102 12.1755 92.0121 12.2848C92.114 12.3941 92.2376 12.481 92.3752 12.5399C92.5127 12.5987 92.6611 12.6283 92.8107 12.6266C93.0026 12.6496 93.197 12.6151 93.3691 12.5276C93.5413 12.4401 93.6835 12.3036 93.7776 12.1353L94.5497 12.1353ZM91.7284 10.8293H93.7811C93.7912 10.6933 93.7727 10.5566 93.7267 10.4282C93.6807 10.2997 93.6083 10.1823 93.5141 10.0834C93.4198 9.98456 93.3059 9.90644 93.1796 9.85408C93.0534 9.80172 92.9175 9.77629 92.7807 9.77942C92.642 9.77768 92.5044 9.80365 92.3759 9.8558C92.2474 9.90795 92.1307 9.98522 92.0326 10.0831C91.9345 10.1809 91.8571 10.2973 91.8048 10.4255C91.7526 10.5536 91.7266 10.6909 91.7284 10.8293Z" fill="white"/>
</g>
<defs>
<clipPath id="clip0_8330_101012">
<rect width="108" height="36" fill="white" transform="translate(-0.000244141 0.000976562)"/>
</clipPath>
</defs>
</svg>
