<svg width="92" height="24" viewBox="0 0 92 24" fill="none" xmlns="http://www.w3.org/2000/svg">
<circle cx="12.7266" cy="11.9998" r="11.9998" fill="#E42E2C"/>
<circle style="mix-blend-mode:multiply" cx="12.7266" cy="11.9998" r="11.9998" fill="url(#paint0_linear_7809_81534)" fill-opacity="0.1"/>
<path d="M18.4929 22.5084C19.9307 21.7205 21.197 20.6493 22.2148 19.36L35.197 2.921C33.8227 1.83553 32.2527 1.02541 30.5767 0.536902C28.9007 0.0483905 27.1516 -0.108951 25.4293 0.0738668C23.7069 0.256685 22.0109 0.694571 20.5384 1.60239C19.8864 2.0044 19.6104 2.35859 19.1453 2.95559L19.1171 2.9918L4.85144 21.0558C6.07054 22.1266 7.49717 22.9348 9.04447 23.4312C10.5918 23.9276 12.2274 24.1018 13.8517 23.9431C15.4761 23.7845 17.0552 23.2964 18.4929 22.5084Z" fill="#E42E2C"/>
<path fill-rule="evenodd" clip-rule="evenodd" d="M41.3557 7.83492L41.3436 7.84708L41.3354 7.86329C40.6504 9.00644 40.2369 10.1334 40.095 11.2522V11.2644V22.9391C40.095 22.9391 40.095 22.9796 40.095 23.0039C40.095 23.0566 40.095 23.1377 40.095 23.1377H42.0651V16.6072C42.657 17.2436 43.3015 17.7341 44.0109 18.0827C44.8622 18.4921 45.7945 18.6989 46.8039 18.6989C48.5956 18.6989 50.132 18.0422 51.4008 16.7409C52.6737 15.4397 53.3101 13.8547 53.3101 11.9981C53.3101 10.1739 52.6696 8.60512 51.3887 7.31199C50.1077 6.01885 48.5632 5.36621 46.7553 5.36621C45.7256 5.36621 44.7568 5.56484 43.8487 5.96616C42.9448 6.36342 42.1138 6.9877 41.3557 7.83492ZM48.9686 7.91599C49.6861 8.33353 50.2577 8.91321 50.6833 9.66314C51.1089 10.4131 51.3197 11.2076 51.3197 12.0548C51.3197 12.8859 51.1049 13.6885 50.6711 14.4587C50.2455 15.2208 49.6739 15.8126 48.9483 16.2342C48.2308 16.6518 47.4647 16.8585 46.6458 16.8585C45.8148 16.8585 45.0243 16.6518 44.2744 16.2342C43.5285 15.8086 42.9569 15.2411 42.5556 14.5276C42.1543 13.802 41.9516 12.9953 41.9516 12.0994C41.9516 10.7171 42.4056 9.57802 43.3096 8.65782C44.2136 7.73763 45.3162 7.27956 46.6255 7.27956C47.4809 7.27956 48.2592 7.49441 48.9686 7.91599Z" fill="#E42E2C"/>
<path d="M55.4951 11.2926L55.491 11.3088V18.6177H57.5057V14.2559C57.5057 12.3425 57.603 11.0656 57.7895 10.3968C58.0408 9.64683 58.4908 8.94959 59.1515 8.30505C59.8042 7.67267 60.4203 7.51052 61.0203 7.73348L61.1743 7.79023L62.1877 6.15252L62.0094 6.05118C61.4946 5.75526 60.996 5.59717 60.5176 5.59717C59.8731 5.59717 59.0988 5.92552 58.207 6.52952C57.2827 7.1538 56.5612 8.13074 56.0261 9.44009C55.791 9.92248 55.6167 10.5427 55.4951 11.2926Z" fill="#E42E2C"/>
<path d="M62.7431 3.43641C63.035 3.72828 63.3957 3.87826 63.8052 3.87826C64.2187 3.87826 64.5754 3.72828 64.8672 3.43641C65.1672 3.13643 65.3172 2.77566 65.3172 2.36218C65.3172 1.9487 65.1632 1.59197 64.8632 1.3001C64.5713 1.00823 64.2146 0.862305 63.8011 0.862305C63.3876 0.862305 63.0309 1.01229 62.7391 1.30416C62.4472 1.59603 62.2972 1.95275 62.2972 2.36623C62.3053 2.77971 62.4553 3.14049 62.7431 3.43641Z" fill="#E42E2C"/>
<path d="M64.8024 5.92969H62.8201V18.6421H64.8024V5.92969Z" fill="#E42E2C"/>
<path d="M68.5278 5.94971H66.4036L72.2572 18.6622H72.7923L78.6093 5.94971H76.4771L72.5207 14.6287L68.5278 5.94971Z" fill="#E42E2C"/>
<path d="M89.1409 5.94971L85.298 14.8233L81.3415 5.94971H79.2295L84.2318 17.219L81.7753 22.8375H83.8832L91.2731 5.94971H89.1409Z" fill="#E42E2C"/>
<defs>
<linearGradient id="paint0_linear_7809_81534" x1="12.7266" y1="11.9998" x2="7.84668" y2="7.91986" gradientUnits="userSpaceOnUse">
<stop offset="0.157792"/>
<stop offset="0.366183" stop-opacity="0.75"/>
<stop offset="0.572837" stop-opacity="0.5"/>
<stop offset="0.801512" stop-opacity="0.25"/>
<stop offset="1" stop-opacity="0"/>
</linearGradient>
</defs>
</svg>
