<svg width="300" height="300" viewBox="0 0 300 300" fill="none" xmlns="http://www.w3.org/2000/svg">
<path d="M150.28 275C219.316 275 275.28 219.036 275.28 150C275.28 80.9644 219.316 25 150.28 25C81.2447 25 25.2803 80.9644 25.2803 150C25.2803 219.036 81.2447 275 150.28 275Z" fill="#D3EDFF"/>
<mask id="mask0_747_33919" style="mask-type:alpha" maskUnits="userSpaceOnUse" x="25" y="25" width="251" height="250">
<path d="M150.281 275C219.317 275 275.281 219.036 275.281 150C275.281 80.9644 219.317 25 150.281 25C81.2457 25 25.2812 80.9644 25.2812 150C25.2812 219.036 81.2457 275 150.281 275Z" fill="#D4ECFA"/>
</mask>
<g mask="url(#mask0_747_33919)">
<path d="M162.99 146.555H174.015V162.359H180.84V197.404H189.765V177.82H203.415V165.108H214.44V185.722H228.09V206.68H241.74V194.999H255.39V182.286H266.415V197.404H275.34V172.323H285.315V162.016H309.99V197.404H316.815V185.035H326.79V174.728H337.815V185.035H347.265V214.926H358.29V182.286H377.19V192.594H388.74V258.216H-39.6602V222.484H-14.9852V230.386H-6.06015V201.526H18.6148V214.926H25.4398V190.532H30.6898V186.753H45.9148V190.532H50.1149V216.987H55.8898V197.404H61.1398V189.158H76.3649V197.404H80.5648V207.367H87.3899V182.286H101.04V169.574H112.065V214.926H122.04V199.465H128.865V187.784H139.89V199.465H146.715V206.68H156.165V162.359H162.99V146.555Z" fill="#AADBFF"/>
<path d="M101.38 228.583C46.541 206.51 -36.068 242.364 -70.5176 263.05H184.929C179.929 260.758 156.22 250.656 101.38 228.583Z" fill="#3D7360"/>
<path d="M301.77 225.934C213.564 190.43 80.6916 248.1 25.2812 281.372H436.154C428.112 277.686 389.976 261.437 301.77 225.934Z" fill="#498F79"/>
</g>
<path d="M169.006 114.081C168.367 117.139 168.031 120.308 168.031 123.556C168.031 128.175 168.711 132.634 169.975 136.84C163.8 133.96 157.022 132.433 150.1 132.433C138.58 132.433 127.46 136.663 118.849 144.322C117.821 145.262 116.617 145.988 115.307 146.458C113.996 146.929 112.605 147.134 111.215 147.062C109.825 146.99 108.462 146.643 107.208 146.039C105.953 145.436 104.83 144.589 103.905 143.548C102.979 142.508 102.27 141.293 101.818 139.975C101.366 138.658 101.179 137.263 101.271 135.873C101.361 134.483 101.727 133.124 102.347 131.877C102.966 130.629 103.828 129.518 104.881 128.606C117.34 117.523 133.43 111.401 150.1 111.401C156.548 111.401 162.909 112.317 169.006 114.081Z" fill="#3E68F5"/>
<path d="M150.093 189.26C158.937 189.26 166.108 182.085 166.108 173.234C166.108 164.383 158.937 157.207 150.093 157.207C141.248 157.207 134.078 164.383 134.078 173.234C134.078 182.085 141.248 189.26 150.093 189.26Z" fill="#3E68F5"/>
<path d="M150.092 25C188.066 25 224.713 38.982 253.048 64.2813L253.042 64.2713C255.12 66.1309 256.375 68.7403 256.531 71.5255C256.686 74.3108 255.729 77.0436 253.871 79.123C252.013 81.2024 249.405 82.4579 246.622 82.6133C243.838 82.7687 241.107 81.8114 239.03 79.9518C214.549 58.1032 182.892 46.0289 150.09 46.0289C117.287 46.0289 85.6306 58.1032 61.1498 79.9518C60.1282 80.9102 58.9248 81.6546 57.6116 82.1412C56.2983 82.6277 54.9009 82.8466 53.5016 82.7851C52.1023 82.7236 50.7298 82.3828 49.4639 81.7829C48.198 81.1829 47.0651 80.3358 46.1313 79.2914C45.1971 78.247 44.4813 77.0263 44.0255 75.7011C43.5696 74.3759 43.3829 72.9729 43.4767 71.5745C43.5706 70.1762 43.9427 68.8106 44.571 67.5582C45.1998 66.3057 46.0719 65.1917 47.1368 64.2813C75.4719 38.982 112.118 25 150.092 25Z" fill="#A6B7FF"/>
<path d="M150.092 68.2078C121.875 68.1688 94.7052 78.9011 74.1218 98.2165C73.0799 99.1507 72.2345 100.284 71.6356 101.549C71.0372 102.814 70.6968 104.187 70.6347 105.585C70.573 106.984 70.7906 108.381 71.2754 109.695C71.7603 111.008 72.5022 112.211 73.4581 113.234C74.4134 114.256 75.5634 115.078 76.8403 115.65C78.1177 116.222 79.4958 116.533 80.8946 116.565C82.2934 116.597 83.6844 116.349 84.9862 115.836C86.2879 115.323 87.4742 114.555 88.4752 113.577C105.188 97.9404 127.213 89.2422 150.092 89.2422C159.943 89.2422 169.635 90.8545 178.812 93.9386C184.252 87.469 191.44 82.5236 199.646 79.8335C184.381 72.2284 167.434 68.1838 150.092 68.2078Z" fill="#A6B7FF"/>
<ellipse cx="213.927" cy="123.556" rx="36.062" ry="36.1371" fill="#FFB700"/>
<ellipse cx="213.926" cy="141.444" rx="5.09998" ry="5.11061" fill="#AD2F2E"/>
<path d="M209.022 105.656C208.915 102.873 211.142 100.56 213.926 100.56C216.711 100.56 218.937 102.873 218.831 105.656L217.898 129.956C217.816 132.091 216.062 133.779 213.926 133.779C211.79 133.779 210.036 132.091 209.954 129.956L209.022 105.656Z" fill="#AD2F2E"/>
</svg>
