<svg width="300" height="300" viewBox="0 0 300 300" fill="none" xmlns="http://www.w3.org/2000/svg">
<path d="M150.28 275C219.316 275 275.28 219.036 275.28 150C275.28 80.9644 219.316 25 150.28 25C81.2447 25 25.2803 80.9644 25.2803 150C25.2803 219.036 81.2447 275 150.28 275Z" fill="#D3EDFF"/>
<mask id="mask0_730_26343" style="mask-type:alpha" maskUnits="userSpaceOnUse" x="25" y="25" width="251" height="250">
<path d="M150.28 275C219.316 275 275.28 219.036 275.28 150C275.28 80.9644 219.316 25 150.28 25C81.2447 25 25.2803 80.9644 25.2803 150C25.2803 219.036 81.2447 275 150.28 275Z" fill="#D4ECFA"/>
</mask>
<g mask="url(#mask0_730_26343)">
<path opacity="0.75" d="M213.655 181.86C188.429 160.504 160.947 102.653 161.412 63.8869C161.46 59.8552 157.113 56.8379 153.543 58.7127L96.1512 88.8553C95.2055 89.352 94.4481 90.1444 93.9946 91.1117L76.3034 128.848C75.9985 129.498 75.8378 130.203 75.8484 130.921C76.3366 164.207 99.1463 204.314 127.252 231.825C128.606 233.151 130.617 233.534 132.385 232.852C146.857 227.268 154.794 224.484 213.143 191.03C216.415 189.153 216.534 184.297 213.655 181.86Z" fill="#D0F3FF"/>
<path d="M213.655 181.86C188.429 160.504 160.947 102.653 161.412 63.8869C161.46 59.8552 157.113 56.8379 153.543 58.7127L96.1512 88.8553C95.2055 89.352 94.4481 90.1444 93.9946 91.1117L76.3034 128.848C75.9985 129.498 75.8378 130.203 75.8484 130.921C76.3366 164.207 99.1463 204.314 127.252 231.825C128.606 233.151 130.617 233.534 132.385 232.852C146.857 227.268 154.794 224.484 213.143 191.03C216.415 189.153 216.534 184.297 213.655 181.86Z" stroke="#82C2F1" stroke-width="5" stroke-linecap="round" stroke-dasharray="9.79 9.79"/>
<path opacity="0.5" d="M107.71 115.241C101.899 106.232 93.9495 90.9624 93.9495 90.9624L76.3076 129.01C76.3076 129.01 94.4825 129.81 106.747 121.577C108.822 120.184 109.065 117.341 107.71 115.241Z" fill="#AADBFF"/>
<path d="M107.71 115.241C101.899 106.232 93.9495 90.9624 93.9495 90.9624L76.3076 129.01C76.3076 129.01 94.4825 129.81 106.747 121.577C108.822 120.184 109.065 117.341 107.71 115.241Z" stroke="#82C2F1" stroke-width="5" stroke-linecap="round" stroke-linejoin="round" stroke-dasharray="9.79 9.79"/>
<path fill-rule="evenodd" clip-rule="evenodd" d="M161.291 132.053C161.853 133.314 161.286 134.792 160.024 135.353L103.08 160.709C101.819 161.27 100.341 160.703 99.7793 159.442C99.2177 158.18 99.7849 156.703 101.046 156.141L157.991 130.786C159.252 130.224 160.73 130.791 161.291 132.053Z" fill="#82C2F1"/>
<path fill-rule="evenodd" clip-rule="evenodd" d="M173.098 155.688C173.66 156.95 173.092 158.427 171.831 158.989L114.887 184.344C113.625 184.906 112.148 184.339 111.586 183.077C111.024 181.816 111.592 180.338 112.853 179.777L169.797 154.421C171.059 153.86 172.536 154.427 173.098 155.688Z" fill="#82C2F1"/>
<path fill-rule="evenodd" clip-rule="evenodd" d="M189.045 175.153C189.661 176.389 189.157 177.89 187.921 178.505L132.573 206.05C131.337 206.665 129.837 206.162 129.221 204.926C128.606 203.689 129.11 202.189 130.346 201.574L185.693 174.029C186.93 173.414 188.43 173.917 189.045 175.153Z" fill="#82C2F1"/>
<path opacity="0.75" d="M322.576 125.327C297.35 103.971 269.868 46.1204 270.333 7.35442C270.381 3.32273 266.034 0.305429 262.464 2.18021L205.072 32.3228C204.126 32.8196 203.369 33.612 202.916 34.5792L185.224 72.3152C184.919 72.9656 184.759 73.6702 184.769 74.3885C185.257 107.675 208.067 147.781 236.172 175.292C237.527 176.618 239.538 177.001 241.306 176.319C255.778 170.735 263.714 167.951 322.063 134.497C325.336 132.621 325.455 127.765 322.576 125.327Z" fill="#7AC5E8"/>
<path d="M216.631 58.7082C210.82 49.6997 202.87 34.4299 202.87 34.4299L185.229 72.4772C185.229 72.4772 203.403 73.2771 215.668 65.0446C217.743 63.6519 217.986 60.8081 216.631 58.7082Z" fill="#82C2F1"/>
<path fill-rule="evenodd" clip-rule="evenodd" d="M270.212 75.5201C270.774 76.7814 270.207 78.2592 268.945 78.8208L212.001 104.176C210.74 104.738 209.262 104.171 208.7 102.909C208.139 101.648 208.706 100.17 209.967 99.6085L266.911 74.2532C268.173 73.6915 269.651 74.2588 270.212 75.5201Z" fill="#DFF1FA"/>
<path fill-rule="evenodd" clip-rule="evenodd" d="M282.019 99.1557C282.58 100.417 282.013 101.895 280.752 102.456L223.808 127.812C222.546 128.373 221.068 127.806 220.507 126.545C219.945 125.284 220.512 123.806 221.774 123.244L278.718 97.8888C279.979 97.3272 281.457 97.8944 282.019 99.1557Z" fill="#DFF1FA"/>
<path fill-rule="evenodd" clip-rule="evenodd" d="M297.966 118.621C298.582 119.857 298.078 121.357 296.842 121.973L241.494 149.517C240.258 150.133 238.757 149.629 238.142 148.393C237.527 147.157 238.03 145.656 239.267 145.041L294.614 117.496C295.85 116.881 297.351 117.384 297.966 118.621Z" fill="#DFF1FA"/>
<path opacity="0.75" d="M109.085 241.348C83.8584 219.992 56.3767 162.141 56.8418 123.375C56.8901 119.343 52.5426 116.326 48.973 118.201L-8.41908 148.343C-9.36486 148.84 -10.1222 149.632 -10.5757 150.6L-28.2669 188.336C-28.5719 188.986 -28.7325 189.691 -28.7219 190.409C-28.2338 223.695 -5.42397 263.802 22.6812 291.313C24.0359 292.639 26.0464 293.022 27.8151 292.34C42.2871 286.756 50.2232 283.972 108.572 250.518C111.845 248.641 111.964 243.785 109.085 241.348Z" fill="#7AC5E8"/>
<path fill-rule="evenodd" clip-rule="evenodd" d="M56.721 191.541C57.2826 192.802 56.7154 194.28 55.454 194.841L-1.49028 220.197C-2.7516 220.758 -4.2294 220.191 -4.79102 218.93C-5.35265 217.668 -4.78543 216.191 -3.5241 215.629L53.4202 190.274C54.6816 189.712 56.1593 190.279 56.721 191.541Z" fill="#DFF1FA"/>
<path fill-rule="evenodd" clip-rule="evenodd" d="M68.5276 215.176C69.0892 216.438 68.522 217.915 67.2607 218.477L10.3164 243.832C9.05504 244.394 7.57724 243.827 7.01562 242.565C6.45399 241.304 7.02121 239.826 8.28254 239.265L65.2269 213.909C66.4882 213.348 67.966 213.915 68.5276 215.176Z" fill="#DFF1FA"/>
<path fill-rule="evenodd" clip-rule="evenodd" d="M84.4752 234.641C85.0903 235.877 84.587 237.378 83.3509 237.993L28.0031 265.538C26.767 266.153 25.2662 265.65 24.6511 264.414C24.0359 263.178 24.5393 261.677 25.7754 261.062L81.1232 233.517C82.3593 232.902 83.86 233.405 84.4752 234.641Z" fill="#DFF1FA"/>
<path d="M220.818 137.894C218.13 163.769 197.655 181.757 171.043 181.757C144.43 181.757 122.855 162.119 122.855 137.894C122.855 131.144 123.38 125.432 124.368 120.594C124.043 122.669 123.868 124.794 123.868 126.944C123.868 151.169 145.443 170.807 172.055 170.807C198.668 170.807 220.243 151.169 220.243 126.944C220.243 123.307 219.755 119.782 218.843 116.407C220.593 122.044 221.343 129.094 220.818 137.894Z" fill="#5141BA"/>
<path d="M218.842 116.406C213.655 97.2815 194.667 83.094 172.055 83.094C147.817 83.094 127.767 99.3815 124.367 120.569V120.594C124.042 122.669 123.867 124.794 123.867 126.944C123.867 151.169 145.442 170.806 172.055 170.806C198.667 170.806 220.242 151.169 220.242 126.944C220.242 123.306 219.755 119.781 218.842 116.406ZM212.455 128.794V128.844C212.417 129.394 212.38 129.956 212.317 130.506C212.305 130.606 212.292 130.694 212.28 130.794C212.23 131.244 212.18 131.694 212.105 132.144C211.992 132.894 211.842 133.644 211.68 134.369C211.592 134.806 211.48 135.231 211.367 135.656C211.317 135.819 211.28 135.981 211.23 136.144C211.217 136.181 211.205 136.219 211.192 136.256C211.067 136.731 210.917 137.194 210.767 137.656C210.58 138.219 210.38 138.781 210.155 139.331C209.942 139.881 209.717 140.431 209.467 140.969C209.292 141.356 209.117 141.731 208.93 142.106C207.98 144.019 206.855 145.844 205.567 147.556C205.405 147.794 205.217 148.032 205.042 148.257C205.017 148.294 204.992 148.319 204.967 148.356C204.767 148.619 204.555 148.869 204.342 149.119C204.055 149.469 203.755 149.819 203.442 150.169C202.205 151.556 200.855 152.856 199.417 154.057C199.13 154.294 198.842 154.531 198.555 154.744C198.042 155.169 197.505 155.569 196.967 155.944C196.655 156.181 196.342 156.394 196.017 156.606C195.442 157.007 194.842 157.381 194.23 157.744C193.842 157.981 193.455 158.206 193.055 158.419C193.055 158.431 193.017 158.444 193.005 158.444C192.455 158.756 191.905 159.044 191.33 159.319C190.805 159.581 190.267 159.844 189.717 160.081C189.68 160.106 189.63 160.119 189.592 160.132C189.005 160.394 188.405 160.644 187.792 160.869C187.23 161.094 186.642 161.306 186.067 161.494C186.017 161.519 185.967 161.532 185.905 161.557C184.767 161.932 183.617 162.257 182.442 162.531C182.192 162.606 181.942 162.656 181.692 162.706C181.23 162.819 180.767 162.919 180.292 163.006C180.255 163.006 180.217 163.019 180.18 163.019C179.542 163.144 178.905 163.244 178.255 163.344H178.217C177.605 163.432 176.98 163.507 176.367 163.556C176.167 163.581 175.967 163.594 175.767 163.606C175.317 163.657 174.867 163.681 174.417 163.706C174.292 163.719 174.167 163.719 174.03 163.719C173.38 163.756 172.717 163.769 172.055 163.769C149.717 163.769 131.605 147.281 131.605 126.944C131.605 126.356 131.617 125.757 131.655 125.169C131.68 124.594 131.73 124.007 131.792 123.431C131.792 123.344 131.792 123.256 131.817 123.181C131.867 122.694 131.93 122.206 132.005 121.719C132.017 121.694 132.017 121.669 132.017 121.644C132.105 121.082 132.217 120.519 132.342 119.969C132.555 118.919 132.817 117.882 133.142 116.869C133.155 116.856 133.155 116.844 133.155 116.831C133.63 115.306 134.217 113.806 134.892 112.369C134.917 112.331 134.942 112.294 134.955 112.256C135.155 111.831 135.367 111.406 135.592 110.994C135.617 110.956 135.63 110.931 135.642 110.906C135.83 110.556 136.017 110.206 136.217 109.869C136.305 109.706 136.392 109.556 136.492 109.406C136.755 108.969 137.03 108.531 137.305 108.094C137.53 107.756 137.742 107.431 137.98 107.106C138.367 106.569 138.755 106.031 139.167 105.519C139.442 105.169 139.717 104.819 140.017 104.481C141.08 103.231 142.23 102.031 143.455 100.919C143.917 100.506 144.38 100.094 144.855 99.694C145.817 98.9065 146.817 98.1565 147.855 97.444C148.355 97.1065 148.867 96.769 149.392 96.4565C149.43 96.419 149.48 96.394 149.517 96.369C149.98 96.0815 150.467 95.8065 150.955 95.544C151.042 95.4815 151.117 95.444 151.205 95.4065C151.58 95.194 151.967 94.9815 152.355 94.794C152.355 94.794 152.355 94.7815 152.367 94.794C152.517 94.7065 152.68 94.619 152.842 94.5565C153.317 94.3065 153.805 94.0815 154.292 93.869C154.392 93.819 154.492 93.769 154.605 93.7315C155.717 93.244 156.867 92.794 158.03 92.4065C158.13 92.369 158.23 92.344 158.317 92.319C158.88 92.119 159.455 91.9565 160.03 91.794C160.567 91.6315 161.105 91.494 161.655 91.369C161.967 91.2815 162.267 91.219 162.58 91.1565C162.867 91.0815 163.155 91.019 163.455 90.9815C163.755 90.9065 164.055 90.8565 164.355 90.8065C164.68 90.744 165.005 90.694 165.33 90.644C165.705 90.5815 166.067 90.5315 166.442 90.494C166.605 90.469 166.755 90.444 166.917 90.4315C167.355 90.3815 167.805 90.3315 168.242 90.294C168.842 90.244 169.442 90.2065 170.042 90.1815C170.705 90.144 171.38 90.1315 172.055 90.1315C179.742 90.1315 186.942 92.094 193.067 95.4815C204.717 101.944 212.505 113.619 212.505 126.944C212.505 127.569 212.505 128.181 212.455 128.794Z" fill="#A4A1E0"/>
<path d="M209.468 140.97C209.955 138.708 210.205 136.37 210.205 133.983C210.205 113.658 192.093 97.1701 169.755 97.1701C152.868 97.1701 138.393 106.595 132.343 119.97C135.918 102.97 152.343 90.1326 172.055 90.1326C194.393 90.1326 212.505 106.62 212.505 126.945C212.505 131.92 211.43 136.645 209.468 140.97Z" fill="#5141BA"/>
<path opacity="0.5" d="M210.205 133.981C210.205 136.369 209.955 138.706 209.468 140.969C203.405 154.344 188.943 163.769 172.055 163.769C149.718 163.769 131.605 147.281 131.605 126.944C131.605 124.556 131.855 122.219 132.343 119.969C138.393 106.594 152.868 97.1689 169.755 97.1689C192.093 97.1689 210.205 113.656 210.205 133.981Z" fill="#F2F2F3"/>
<path d="M213.884 157.308L205.959 167.296L218.728 177.427L226.653 167.439L213.884 157.308Z" fill="#E8E8E8"/>
<path d="M213.404 165.06C215.593 162.302 215.938 158.932 214.175 157.534C212.412 156.135 209.208 157.237 207.02 159.995C204.832 162.753 204.487 166.123 206.25 167.521C208.013 168.92 211.216 167.818 213.404 165.06Z" fill="#E8E8E8"/>
<path d="M225.884 174.957C228.944 171.101 229.994 166.841 228.231 165.443C226.468 164.044 222.559 166.036 219.5 169.892C216.44 173.747 215.389 178.007 217.152 179.406C218.915 180.805 222.825 178.813 225.884 174.957Z" fill="#FFC79D"/>
<path d="M228.312 165.358L217.077 179.517L260.711 214.138L271.945 199.979L228.312 165.358Z" fill="#FFC79D"/>
<path d="M269.741 209.925C272.8 206.07 273.851 201.81 272.088 200.411C270.325 199.012 266.416 201.004 263.356 204.86C260.297 208.716 259.246 212.976 261.009 214.374C262.772 215.773 266.681 213.781 269.741 209.925Z" fill="#FF8D18"/>
</g>
</svg>
